<svg width="237" height="160" viewBox="0 0 237 160" fill="none" xmlns="http://www.w3.org/2000/svg"><path d="M38.961 118.097c21.5176 0 38.9611-17.219 38.9611-38.4591 0-21.2401-17.4435-38.4587-38.9611-38.4587S0 58.3978 0 79.6379s17.4434 38.4591 38.961 38.4591z" fill="#B2B1B2"/><path d="M142.364 158.606c44.182 0 80-35.355 80-78.9681 0-43.6131-35.818-78.9685-80-78.9685-44.1831 0-80.0004 35.3554-80.0004 78.9685s35.8173 78.9681 80.0004 78.9681z" fill="#fff" stroke="#B8D53E" stroke-miterlimit="10"/><path d="M122.078 102.201v-.257l9.143-6.2558c12.701-9.1275 25.662-19.6139 25.662-36.5871 0-14.2041-10.389-23.8444-27.584-24.2803H125.558l-42.1034 1.1025h33.1944c-5.881 1.1329-11.55 3.1566-16.8048 5.9996l-21.0649.7691h21.2727l3.844 14.64H92.4676l11.6104.6923c5.632-3.1673 12.041-4.7377 18.519-4.5382 6.624 0 11.117 3.2562 11.117 9.1276 0 8.6404-9.922 17.127-24.597 28.6133l-21.065 15.691-2.5974 13.563-35.6624.667h97.2988l3.558-18.947h-28.571zM236.026 56.8701h-40.701l14.467.6923-4.597 7.5379c-2.598 4.0509-4.624 7.1789-6.883 10.5889h-.39c-.805-2.2306-2-5.4868-4.104-10.9735l-2.909-7.8456H160l6.208.3846 15.169 30.5874-27.845 33.0489-4.389.256h30.234l5.428-8.948c3.039-4.846 4.779-8.23 6.624-11.102h.389c.935 3.513 2.26 7.051 3.844 11.615l2.909 7.692-14.649.692h39.662l-15.091-32.9975 27.533-31.2284z" fill="#B8D53E"/><path d="M28.2078 72.8694l-4.8312 1.9229v-4.5638l6.7792-2.769h4.8053L30.7013 89.74H25.013l3.1948-16.8706zM42.7013 72.8691l.7273 2.0511 1.0649 2.8972 1.8182-2.7946 1.3507-2.1537h6.8831l-7.2208 8.2045 3.9481 8.6659h-6.4935l-.8312-2.2306c-.4156-1.1794-.7533-2.128-1.013-3.051-.4935.7692-.9351 1.6665-1.7402 2.9228l-1.4286 2.3588h-6.9351l7.3507-8.7428-4.026-8.1276h6.5454z" fill="#fff"/></svg>