<svg width="37" height="48" viewBox="0 0 37 48" fill="none" xmlns="http://www.w3.org/2000/svg"><path fill-rule="evenodd" clip-rule="evenodd" d="M29.8268 4.0645c4.2763 3.4885 6.7522 8.6649 6.7522 14.2075 0 6.4424-3.2915 12.2945-8.8341 15.6424-1.069.6471-1.8567 1.5755-2.1943 2.6444h-5.458l2.2225-9.2838c3.5167-1.5758 5.8239-5.0922 5.8239-9.003v-.591l-4.2203-4.2199-2.8132 2.8133-2.8136-2.8133-2.8132 2.8133-2.8133-2.8133-4.2202 4.2199v.591c0 3.9108 2.3071 7.4272 5.8239 9.003l2.2221 9.2838h-5.4576c-.3377-1.0689-1.0694-1.9973-2.0537-2.5602C2.1994 29.9754-1.1767 22.3513.3709 14.5301 1.7777 7.5248 7.4045 1.842 14.3534.4071c5.5422-1.1535 11.1691.1685 15.4735 3.6574zm-4.5017 35.3079v1.5941c0 3.8826-3.1509 7.0335-7.0335 7.0335-3.8822 0-7.0334-3.1509-7.0334-7.0335v-1.5941h14.0669zm-4.6976-14.461l-.7035.2535-1.6318 6.78-1.6318-6.78-.7032-.2535c-2.6447-.9283-4.445-3.3197-4.6703-6.0769l1.3785-1.3784 2.8136 2.8133 2.8132-2.8133 2.8136 2.8133 2.8132-2.8133 1.3785 1.3784c-.2249 2.7572-2.0256 5.1486-4.67 6.0769z" fill="#fff"/></svg>