<svg width="64" height="60" viewBox="0 0 64 60" fill="none" xmlns="http://www.w3.org/2000/svg"><path d="M51.5255 38.761c2.4385-1.4765 4.07-4.1422 4.07-7.1792v-6.435c0-4.1931-3.11-7.6782-7.1601-8.303v-6.2152c0-.5109-.4173-.9251-.932-.9251h-9.9842V5.9899C37.5192 2.6871 34.8124 0 31.4852 0h-14.535c-3.3271 0-6.0339 2.687-6.0339 5.99v3.7135H.9319c-.5147 0-.9319.4142-.9319.9251V43.476c0 .5109.4172.9251.932.9251h8.2194c.5147 0 .9319-.4142.9319-.9251s-.4172-.9252-.932-.9252H1.864V23.8686c1.6173 2.4369 4.1694 4.2244 7.1818 4.8309v1.0154c0 1.6324 1.3378 2.9603 2.9822 2.9603 1.6443 0 2.9822-1.3281 2.9822-2.9603v-.785h7.199c.5147 0 .9319-.4141.9319-.9251s-.4172-.9251-.9319-.9251h-7.199v-2.2649c0-.5109-.4173-.9251-.932-.9251H9.9775c-.5147 0-.932.4142-.932.9251v1.9921c-4.1609-1.0129-7.1817-4.7532-7.1817-9.0976v-6.1556H46.5715v5.2082c-.0555.0036-.11.0101-.1652.0148-.0637.0055-.1275.0103-.1908.0171-.0772.0083-.1537.0187-.2303.0291-.0612.0083-.1228.0158-.1836.0253-.0778.0123-.1548.0269-.2319.0413-.0584.0108-.1174.0207-.1756.0329-.0794.0166-.1577.0355-.2362.0543-.0548.0131-.1099.0249-.1642.039-.0834.0215-.1656.046-.2478.07-.0483.0141-.0971.0269-.1449.0417a8.4028 8.4028 0 0 0-.2755.0928c-.0364.0128-.0734.024-.1097.0374a8.4929 8.4929 0 0 0-.7477.3145c-.0253.0121-.0498.0254-.0749.0378a8.5524 8.5524 0 0 0-.2833.1442c-.0381.0204-.0748.0426-.1125.0635-.079.0441-.1582.0882-.2357.1346-.0423.0254-.0833.0525-.125.0785-.0714.0445-.1427.0888-.2126.1353-.0437.0291-.0862.0598-.1294.0899-.0661.0459-.1324.0916-.1972.1392-.0439.0323-.0866.0661-.1299.0991-.0621.0477-.1244.0953-.1851.1444-.0434.0352-.0856.0716-.1283.1076-.0586.0496-.1173.0991-.1746.1502-.0424.0378-.0837.0767-.1253.1153a8.3926 8.3926 0 0 0-.1649.1561c-.0412.0402-.0813.0814-.1216.1225a8.786 8.786 0 0 0-.1555.162c-.0397.0426-.0783.0859-.117.1293a8.0666 8.0666 0 0 0-.1464.1679 8.0535 8.0535 0 0 0-.1119.1357 7.8686 7.8686 0 0 0-.2438.3153 8.1064 8.1064 0 0 0-.2289.3265 8.8 8.8 0 0 0-.2134.3374 8.9309 8.9309 0 0 0-.1102.1899 8.9265 8.9265 0 0 0-.0872.1578 8.1796 8.1796 0 0 0-.1009.1953c-.027.0539-.0541.1078-.08.1623a8.2537 8.2537 0 0 0-.0915.2005c-.0246.0555-.0493.1107-.0727.1666a8.366 8.366 0 0 0-.0818.2055c-.0218.0565-.044.1129-.0647.1701-.0253.07-.0488.1408-.0723.2116-.0189.0574-.0385.1143-.0562.1721-.0221.072-.0421.1448-.0623.2177-.0162.058-.0329.1157-.0479.1742-.0189.0743-.0354.1494-.0523.2244-.0131.0581-.0271.1161-.0391.1746-.0158.0777-.0286.1562-.0423.2346-.0099.0571-.0209.1137-.0296.1712-.0126.0827-.0219.1664-.032.2498-.0066.0542-.0146.1079-.02.1624-.0093.0925-.0152.1858-.0214.2791-.0031.0466-.008.0925-.0104.1391a8.3717 8.3717 0 0 0-.0108.4234v1.8081a9.5492 9.5492 0 0 1-1.3057.1221v-2.262c0-.5109-.4172-.9251-.9319-.9251h-4.1005c-.5147 0-.932.4142-.932.9251v2.2649h-6.0808c-.5146 0-.9319.4141-.9319.9251 0 .5108.4172.9251.9319.9251h6.0808v.785c0 1.6324 1.3379 2.9603 2.9821 2.9603 1.6444 0 2.9822-1.3281 2.9822-2.9603v-.7884c.4362-.0088.8721-.043 1.3057-.102v2.7573c0 .1403.0037.2804.0107.4197.0027.0543.0081.1079.0118.162.0059.0843.0111.1685.0195.2522.0067.0671.0162.1331.0244.1998.0087.0695.0165.1391.0267.2084.0112.0743.0249.1477.038.2212.0107.0601.0205.1206.0325.1804.0161.0797.0346.1585.0529.2374.0122.0524.0234.105.0367.1574.0213.0847.0452.1685.069.252.013.045.0249.0901.0387.1347.0275.0907.0576.1802.0882.2695.0124.036.0241.0723.0369.1082a8.58 8.58 0 0 0 .1113.2915c.0103.0254.0199.051.0303.0762a8.495 8.495 0 0 0 .14.3193c.0059.0126.0115.0253.0173.0379.709 1.5149 1.858 2.7872 3.2852 3.6514-2.5892.7304-4.9457 2.0522-6.8879 3.79H12.2575c-.5147 0-.9319.4141-.9319.9251s.4172.9251.9319.9251h21.8088c-2.2624 2.736-3.6299 6.1458-3.6299 9.7756v4.8981c0 .5108.4172.9251.9319.9251h7.0983c.5147 0 .9319-.4142.9319-.9251 0-.511-.4172-.9252-.9319-.9252h-6.1665v-3.9731c0-3.695 1.5883-7.2281 4.4723-9.9482.0288-.0271.0582-.0536.0872-.0805.1116-.1035.2248-.2054.3392-.3056l.0268-.0235c.2258-.1969.4573-.3866.6936-.57.0429-.0332.0862-.0657.1293-.0984a15.486 15.486 0 0 1 .1908-.1424c.0631-.0463.1262-.0926.1899-.1379.0269-.0193.0542-.0379.0813-.0569a15.8531 15.8531 0 0 1 4.313-2.1331l1.5131 2.9183-2.0214 8.711a.9207.9207 0 0 0 .2789.8901l3.9074 3.5501a.933.933 0 0 0 .6292.2427.934.934 0 0 0 .6293-.2427l3.9074-3.5501a.921.921 0 0 0 .279-.8901l-2.0215-8.711 1.5131-2.9183c2.2318.7061 4.3238 1.919 6.051 3.5483 2.8839 2.72 4.4723 6.2531 4.4723 9.9481v3.973H41.5728c-.5146 0-.9319.4142-.9319.9251 0 .5108.4172.9252.9319.9252H62.893c.5145 0 .9319-.4142.9319-.9252v-4.8981c0-7.1473-5.3017-13.4417-12.2994-15.4155zM10.9092 27.9182v-2.1784H13.1459V29.7148c0 .6121-.5017 1.1101-1.1184 1.1101s-1.1184-.4981-1.1184-1.1101v-1.7966h.0001zm21.411-18.2147H16.115V6.6531c0-.8436.6914-1.53 1.5413-1.53h13.1228c.8498 0 1.5412.6863 1.5412 1.53v3.0504h-.0001zm3.335 0H34.184V6.6531c0-1.8638-1.5275-3.3802-3.4051-3.3802H17.6562c-1.8775 0-3.405 1.5163-3.405 3.3802v3.0505h-1.4713V5.99c0-2.2826 1.8708-4.1397 4.1702-4.1397H31.485c2.2994 0 4.1702 1.857 4.1702 4.1397v3.7136zm-.1588 18.3013v1.7102c0 .6122-.5018 1.1102-1.1185 1.1102-.6166 0-1.1183-.4981-1.1183-1.1102V25.74h2.2366v2.2648h.0002zm5.0371-2.8619c0-3.4983 2.7773-6.3647 6.2581-6.5404a6.6867 6.6867 0 0 1 .339-.0085c.1061 0 .2115.0031.3165.008l.0106.0004h.0043l.0076.0001c3.4806.1757 6.258 3.0421 6.258 6.5404v2.2036c-3.0061-.5537-4.2225-3.5879-4.2766-3.7267-.1287-.337-.4438-.5669-.806-.5927a.9387.9387 0 0 0-.8833.477c-.0845.1517-2.028 3.5293-7.2283 3.8971v-2.2583h.0001zm9.4744 27.0561l-2.8773 2.6142-2.8774-2.6142 1.8097-7.7978h2.1354l1.8096 7.7978zm-5.3287-11.9829c.0813-.015.1628-.0286.2443-.0424.0578-.0096.1159-.0191.1738-.028a14.311 14.311 0 0 1 .3055-.0446 14.1898 14.1898 0 0 1 .5597-.0637l.0388-.0036c.1382-.0128.2767-.0234.4151-.0322.0557-.0035.1112-.0073.1671-.0101h.0007c.1123-.0059.2246-.0088.337-.012.0698.0017.1391.0053.2095.0053.0703 0 .1396-.0036.2094-.0053.1125.0032.2249.0061.3375.012.036.0018.072.0033.1081.0055a15.2127 15.2127 0 0 1 1.0777.1046c.0998.0135.1995.0282.299.0437.0587.009.1175.0188.1762.0284.0812.0137.1625.0271.2435.0421l-1.2103 2.335h-2.4819l-1.2107-2.3347zm2.8373-2.0935c-.0194-.0002-.0386-.0011-.0581-.0002a3.275 3.275 0 0 0-.0699.0042l-.0211.0012c-.0746-.002-.1491-.0048-.224-.0058h-.0254c-.0749.001-.1495.0038-.2242.0058-3.4009-.121-6.1847-2.8763-6.3559-6.2198a6.6613 6.6613 0 0 1-.0083-.3262v-2.3266c4.2138-.2565 6.6925-2.226 7.9152-3.5819.8612 1.3348 2.53 3.1901 5.2869 3.5481v2.3605c0 3.4845-2.7543 6.3416-6.2152 6.5407z" fill="#74AE06"/></svg>