<svg width="43" height="45" viewBox="0 0 43 45" fill="none" xmlns="http://www.w3.org/2000/svg"><path d="M41.313 20.889L21.592 1.166C20.815.389 19.797 0 18.779 0c-1.018 0-2.037.389-2.813 1.166l-10.8 10.798c-1.554 1.554-1.554 4.122 0 5.676l1.79 1.839h24.979c1.065 0 6.168 0 6.168 6.065v4.129l3.184-3.155c1.553-1.557 1.581-4.075.026-5.629z" fill="#5E9641"/><path d="M32.06 21.3281H4.167c-2.197 0-4.076 1.77-4.076 3.967v10.55h35.898v-10.55c0-2.197-1.732-3.967-3.929-3.967zM9.839 32.2531c-.779 0-1.484-.31-2.004-.81-.52.5-1.226.81-2.003.81-1.598 0-2.895-1.295-2.895-2.896 0-1.599 1.296-2.895 2.895-2.895.778 0 1.484.309 2.003.809.52-.5 1.225-.809 2.004-.809 1.599 0 2.895 1.296 2.895 2.895 0 1.601-1.296 2.896-2.895 2.896z" fill="#94C83D"/><path d="M.091 40.566c0 2.197 1.878 3.99 4.076 3.99H32.06c2.197 0 3.93-1.793 3.93-3.99v-.234H.091v.234z" fill="#5E9641"/></svg>