<svg width="60" height="60" viewBox="0 0 60 60" fill="none" xmlns="http://www.w3.org/2000/svg"><path d="M51.8119 43.7266a13.2606 13.2606 0 0 0-.0241-5.0682l4.585-10.9843a.1586.1586 0 0 0 0-.0218 18.6303 18.6303 0 0 1 3.2185-5.5473 1.4744 1.4744 0 0 0 .3694-1.3565l-1.8801-8.0596a.9666.9666 0 0 0-.1001-.2405c-.008-.0149-.011-.0328-.019-.0467-.008-.0139-.043-.0477-.0631-.0735a1.0025 1.0025 0 0 0-.1411-.164.9413.9413 0 0 0-.1091-.0656 1.0306 1.0306 0 0 0-.1552-.0934.9932.9932 0 0 0-.2343-.0566c-.023 0-.043-.0149-.066-.0169a1.0069 1.0069 0 0 0-.5516.1222c-.015.008-.0331.0109-.0481.0199h-.01l-7.0686 4.3796a1.4804 1.4804 0 0 0-.7068 1.2223 18.547 18.547 0 0 1-1.6828 6.1942v.011l-2.2915 5.4985a13.493 13.493 0 0 0-3.5758-1.2819 53.3192 53.3192 0 0 0 .5185-9.7719c1.8635-2.2195 2.7579-5.0855 2.4847-7.9621C43.635 4.5717 38.3623.3889 38.1371.213a1.0071 1.0071 0 0 0-1.1697-.0494.9904.9904 0 0 0-.417 1.086c.5155 1.922.069 3.9502-3.7391 8.1211-1.7109 1.64-2.2533 4.1442-1.3725 6.3373a7.7055 7.7055 0 0 0 1.4256 2.2857c-.2423 1.5354-.4325 2.9893-.5636 4.4054a49.4161 49.4161 0 0 0-.1742 7.0479 13.6238 13.6238 0 0 0-2.4927 1.7242l-4.8553-20.6109c0-.0209-.02-.0358-.026-.0547a.9357.9357 0 0 0-.0701-.1918l-4.9593-9.092C19.2269.3116 18.1784-.156 17.1634.08c-1.015.236-1.7453 1.1172-1.7829 2.1514l-.3764 10.3303c.0002.0746.0086.1489.025.2216v.0448l4.9534 20.9856a11.3437 11.3437 0 0 0-2.3145.3428l-5.4489-13.0632c-.437-.9986-1.5958-1.4698-2.6128-1.0623l-8.328 3.4225C.259 23.8759-.2255 25.036.194 26.0503l7.39 17.6972c-4.3312.2257-7.6932 3.8351-7.5814 8.1391.1118 4.3041 3.6567 7.7366 7.9938 7.7405h44.0476c2.8612-.0412 5.483-1.5946 6.8776-4.075a7.9006 7.9006 0 0 0-.1161-7.9502c-1.4665-2.4392-4.1325-3.9165-6.9937-3.8753zm-1.0201-25.7229l4.1965-2.5998-1.4856 3.5617c-.2118.5072.0307 1.0887.5416 1.2989.5108.2102 1.0966-.0305 1.3084-.5376l1.4856-3.5617 1.1122 4.783a19.6262 19.6262 0 0 0-2.9031 4.7572 4.1454 4.1454 0 0 1-3.3053.0688c-1.0631-.4365-1.8937-1.2945-2.2908-2.3664a19.516 19.516 0 0 0 1.3405-5.4041zm-2.3025 7.8021a6.0951 6.0951 0 0 0 2.4957 1.8037 6.3908 6.3908 0 0 0 2.4496.5128 5.3256 5.3256 0 0 0 .6067-.0368l-3.1945 7.6521c-.9565-2.0935-2.4362-3.9097-4.2986-5.2759l1.9411-4.6559zm-13.7149-7.0976l5.0295.3051c.031.9282.02 1.8882-.011 2.8631a21.1928 21.1928 0 0 1-5.0155-.2405c-.1261-.0179-.2492-.0318-.3744-.0487.1002-.9361.2223-1.8842.3694-2.879h.002zm-.4775-8.0029c2.6579-2.9107 4.0354-5.1497 4.3557-7.2545 1.9105 1.9513 3.1716 4.4377 3.6129 7.1234.2103 2.3379-.5179 4.6637-2.0261 6.4715a4531.2527 4531.2527 0 0 1-5.8674-.3578c-.831-.7712-1.3091-1.8457-1.3237-2.975-.0145-1.1292.4357-2.2155 1.2466-3.0076h.002zm-.0761 12.8625l.2904.0378a28.7344 28.7344 0 0 0 3.8972.3289c.4144 0 .8509-.0328 1.2884-.0666-.0911 1.279-.2403 2.6147-.4295 3.995-.2473-.0129-.4895-.0367-.7378-.0367a13.4964 13.4964 0 0 0-4.4368.7582 47.6043 47.6043 0 0 1 .1261-5.0166h.002zm-7.7433 11.6213l-2.8641-12.1112c-.1339-.5254-.6672-.8475-1.1988-.7239-.5316.1236-.8654.6472-.7503 1.1771l2.5738 10.9007a11.4074 11.4074 0 0 0-2.1824-.5396L17.662 15.2787a4.7733 4.7733 0 0 0 1.9601.4234c.063 0 .1301-.009.1942-.012l.7077 3.0003a.997.997 0 0 0 .6833.7401c.3458.1059.7223.0184.9847-.229a.989.989 0 0 0 .2812-.9643l-.7088-3.0022a4.7375 4.7375 0 0 0 1.7489-1.3217l4.4668 18.9603a13.3149 13.3149 0 0 0-1.5026 2.3155zm-6.1166-21.565c-1.2803.2465-2.5875-.2731-3.3426-1.3287l.1271-3.5001a5.933 5.933 0 0 0 1.0561.0994 4.4907 4.4907 0 0 0 1.0171-.1123 5.1132 5.1132 0 0 0 1.856-.9163l1.6859 3.0887c-.2009 1.2815-1.1401 2.327-2.3996 2.6713v-.002zm-2.742-11.6094a.3132.3132 0 0 1 .3444.153l2.1463 3.9404a3.4227 3.4227 0 0 1-1.3515.7454 3.4275 3.4275 0 0 1-1.5426-.0726l.1631-4.478a.3088.3088 0 0 1 .2403-.2882zm-7.2448 19.8488l.7648 1.8345-3.704 1.5225c-.4391.183-.6875.6479-.594 1.1114.0936.4636.5031.7976.9794.7986a1.022 1.022 0 0 0 .3834-.0755l3.704-1.5235.7659 1.8365-1.853.7623c-.4417.1814-.6925.6474-.599 1.1127.0936.4653.5054.8001.9834.7993a1.0248 1.0248 0 0 0 .3824-.0755l1.853-.7623.7658 1.8365-3.707 1.5255c-.4416.1814-.6925.6475-.599 1.1128.0936.4652.5055.8.9834.7992a1.0185 1.0185 0 0 0 .3824-.0755l3.704-1.5225.8099 1.9409c-3.2621 1.4781-5.6542 4.3684-6.482 7.8319L2.0421 25.2861l8.332-3.4226zm41.67 35.776H7.9965c-3.3173 0-6.0065-2.6695-6.0065-5.9626s2.6892-5.9627 6.0065-5.9627a5.9391 5.9391 0 0 1 1.7129.2464c.3001.0901.6254.0352.8789-.148a.992.992 0 0 0 .4115-.7851c.0712-3.5418 2.1336-6.7459 5.3414-8.298 3.2077-1.5522 7.0207-1.1911 9.875.9351.2522.1863.578.2442.8797.1563a.9983.9983 0 0 0 .655-.6035c1.9558-5.1744 7.3613-8.2181 12.8387-7.2291 5.4775.9889 9.4572 5.7272 9.4523 11.2539a11.2446 11.2446 0 0 1-.5055 3.353.9884.9884 0 0 0 .2196.9662c.2412.2603.6037.3738.9517.2979a6.294 6.294 0 0 1 1.3364-.1451c3.3173 0 6.0065 2.6696 6.0065 5.9627s-2.6892 5.9626-6.0065 5.9626z" fill="#74AE06"/><path d="M38.7138 15.6026a1.0034 1.0034 0 0 0 .8009-.3925c1.2498-1.6792 1.7328-3.8019 1.3314-5.8514a.9969.9969 0 0 0-.7052-.7239 1.006 1.006 0 0 0-.9802.2594.9888.9888 0 0 0-.2487.9763 5.4893 5.4893 0 0 1-.993 4.1401.988.988 0 0 0-.0946 1.0407 1.002 1.002 0 0 0 .8954.5494l-.006.0019zM37.3978 45.7142a4.9488 4.9488 0 0 0-2.1473.4969c-1.8009-2.4463-5.1635-3.1629-7.8171-1.666-2.6536 1.497-3.7545 4.7315-2.5591 7.5193.1572.3665.5197.6043.921.6042a.9941.9941 0 0 0 .3924-.0795.997.997 0 0 0 .5363-.5432.9876.9876 0 0 0-.0077-.7606 4.0218 4.0218 0 0 1-.3304-1.596c0-2.1954 1.7928-3.9751 4.0043-3.9751 1.5532-.0077 2.9679.8858 3.619 2.2857.0216.0323.045.0635.07.0934.0158.0341.0336.0672.0531.0994.018.0218.044.0318.0641.0526a.9507.9507 0 0 0 .1551.1292.9751.9751 0 0 0 .1602.0994.9939.9939 0 0 0 .1802.0556.9282.9282 0 0 0 .1882.0289 1.2422 1.2422 0 0 0 .3824-.0636.7645.7645 0 0 0 .0791-.0189.9071.9071 0 0 0 .0931-.0686 1.0391 1.0391 0 0 0 .1051-.0537 2.9667 2.9667 0 0 1 1.858-.6519c1.1705.0019 2.2333.6788 2.723 1.7342.2294.4994.8233.7197 1.3264.4919s.725-.8173.4956-1.3168c-.8152-1.7638-2.5901-2.8951-4.545-2.8968zM17.6914 38.8085c-.1512.0487-3.688 1.2631-3.688 4.9182 0 .5488.4482.9937 1.0011.9937.5529 0 1.0011-.4449 1.0011-.9937.0817-1.3863 1.0005-2.5856 2.3245-3.034.5252-.1751.808-.7397.6317-1.2611-.1764-.5214-.7452-.8022-1.2704-.6271v.004zM31.779 37.7341a.9783.9783 0 0 0 .2433.0298c.4588-.0004.8586-.3104.97-.7522.4608-1.8557 2.1157-3.1757 4.0404-3.2228.5529-.0014 1-.4474.9986-.9963-.0014-.5488-.4507-.9926-1.0036-.9913-2.8454.0375-5.3043 1.9825-5.9765 4.7274-.1343.5324.1915 1.0721.7278 1.2054z" fill="#74AE06"/></svg>