<svg width="42" height="42" viewBox="0 0 42 42" fill="none" xmlns="http://www.w3.org/2000/svg"><path fill-rule="evenodd" clip-rule="evenodd" d="M21.5254 37.8561S20.8733 42 22.8123 42c1.9389 0 6.5461-1.2955 3.7749-9.6776-2.7625-8.3821 0-7.0952 0-7.0952a25.6404 25.6404 0 0 0 1.7846.3689s7.9874 1.7931 10.9302-.9008c2.3593-2.1535.5319-5.0018.5319-5.0018s3.3202-2.9599-.0601-6.4861c0 0 2.162-3.569-1.6387-6.426 0 0 1.7674-4.916-5.2849-6.4174-2.0762-.4461-4.6844-.429-7.1467-.2316-6.1514-.1287-12.2857.6692-12.2857.6692l-3.9637 17.236c1.2097.7293 1.7759 1.5615 2.0419 2.102.0601.1716.1287.3603.2059.5577.3346.8064.8665 1.7931 1.7159 2.6853 3.9637 3.0457 8.1076 14.4735 8.1076 14.4735zM7.5671 16.3131l3.0028-14.2676c.1715-.815-.369-1.4842-1.2097-1.4756H0l.0086 17.2275h5.731c.8322 0 1.6559-.6692 1.8275-1.4843z" fill="#fff"/></svg>