<svg width="48" height="35" viewBox="0 0 48 35" fill="none" xmlns="http://www.w3.org/2000/svg"><path fill-rule="evenodd" clip-rule="evenodd" d="M26.834 11.0481L41.398 23.8c.384.3341.602.812.6023 1.3258 0 .9581-.782 1.74-1.74 1.74h-.2681c-.406 0-.802-.1419-1.114-.4039l-.164-.1361-.0069-.006c-.0142-.0124-.0296-.0259-.0451-.0379l-11.022-9.1841c-.422-.35-1.052-.298-1.408.128a.9996.9996 0 0 0 .126 1.41l11.058 9.214c.372.3281.582.7961.582 1.296 0 .948-.7701 1.7201-1.72 1.7201h-.294c-.402 0-.79-.14-1.1-.396l-11.244-9.3701c-.426-.3559-1.056-.2959-1.41.126-.354.4241-.2961 1.0541.128 1.4081l9.102 7.584c.342.286.54.704.54 1.15 0 .826-.672 1.498-1.4981 1.498-.742 0-1.47-.256-2.026-.7l-.956-.812c-.0027-.0027-.0054-.0044-.0074-.0065a.011.011 0 0 1-.0026-.0035l-2.51-2.134v-.39c0-2.18-1.774-3.954-3.954-3.954h-.07c-.1125 0-.2213.0174-.3301.0349-.0518.0083-.1036.0167-.1559.0231-.678-1.22-1.9761-2.058-3.514-2.058-.1168 0-.2307.0183-.3457.0367a5.259 5.259 0 0 1-.1403.0213c-.678-1.2199-1.9761-2.058-3.5141-2.058-.1182 0-.2333.0188-.3483.0375-.0445.0072-.089.0144-.1336.0206-.6741-1.22-1.9581-2.058-3.448-2.058-1.328 0-2.558.66-3.29 1.7599l-.556.834L0 19.298V0l4.166 1.806a7.002 7.002 0 0 0 5.602 1.53c3.982-.626 7.546-.582 10.6821.058l-.0415.027c-.2798.1828-.556.3632-.8285.529L13.996 9.456c-1.326 1.326-1.6519 3.338-.8119 5.01.7399 1.48 2.226 2.4 3.882 2.4h.7999c1.01 0 1.956-.334 2.738-.972.3879-.3159.834-.6879 1.31-1.088 1.566-1.3099 3.6379-3.042 4.92-3.7579zm13.816-6.424a.9924.9924 0 0 1-.5.23c-4.02.612-6.918-.342-9.242-1.11l-.0317-.0105c-1.4165-.4656-2.6395-.8676-3.8762-.8676-2.1014 0-3.7292 1.0694-5.3028 2.1032l-.0012.0009-.0354.0232c-.3536.2319-.698.4577-1.0386.6648l-5.2121 5.212c-.714.714-.8899 1.8-.438 2.702.398.798 1.2 1.294 2.0921 1.294h.7999c.5441 0 1.0541-.18 1.4741-.52.382-.312.822-.678 1.2919-1.072 2.562-2.142 4.632-3.824 6.018-4.344a.979.979 0 0 1 .3521-.064.998.998 0 0 1 .654.244l14.454 12.526L48 19.3V.04l-7.35 4.584zM9.046 20.866c-.654 0-1.264.3259-1.626.87l-1.092 1.638A1.9505 1.9505 0 0 0 6 24.458v.454c0 1.08.874 1.9541 1.954 1.9541.654 0 1.264-.326 1.626-.87l1.092-1.638c.2141-.32.3281-.698.3281-1.0841v-.454c-.0001-1.08-.8741-1.954-1.954-1.954zm3.932 2h.068c1.08 0 1.954.874 1.954 1.9541v.394c0 .424-.138.834-.392 1.172l-2.022 2.698c-.37.492-.948.782-1.564.782h-.068c-1.08 0-1.954-.874-1.954-1.954v-.3941c0-.424.138-.834.392-1.172l2.022-2.6981c.37-.492.948-.7819 1.564-.7819zm4.068 2h-.068c-.616 0-1.194.2899-1.564.7819l-2.022 2.6981c-.254.3379-.392.748-.392 1.1719v.3941c0 1.08.874 1.954 1.954 1.954h.068c.616 0 1.194-.29 1.564-.782l2.022-2.698c.254-.338.392-.748.392-1.172v-.394c0-1.0801-.874-1.954-1.954-1.954zm3.932 2h.068c1.08 0 1.9539.874 1.954 1.954h-.002v.394c0 .422-.136.834-.39 1.172l-2.022 2.698c-.37.492-.948.782-1.564.782h-.068c-1.08 0-1.954-.874-1.954-1.954v-.3941c0-.4239.138-.834.392-1.1719l2.022-2.6981c.37-.492.948-.7819 1.564-.7819zm5.1939 5.968l-1.81-1.542c-.0274.0428-.0481.0894-.0687.1359-.0247.0556-.0494.1111-.0854.1601l-1.2859 1.714 1.3459 1.248c.428.426 1.0601.402 1.4381.024.498-.498.696-1.452.466-1.74z" fill="#fff"/></svg>