<svg width="60" height="60" viewBox="0 0 60 60" fill="none" xmlns="http://www.w3.org/2000/svg"><path d="M59 15.8833h-1v-2.9781a.9893.9893 0 0 0-.2929-.702A1.0035 1.0035 0 0 0 57 11.9125H46V.9927a.9892.9892 0 0 0-.2929-.702A1.0037 1.0037 0 0 0 45 0H15c-.2652 0-.5196.1046-.7071.2908A.9892.9892 0 0 0 14 .9927v10.9198H3c-.2652 0-.5196.1045-.7071.2907a.9892.9892 0 0 0-.2929.702v2.9781H1a1.004 1.004 0 0 0-.7071.2907.9892.9892 0 0 0-.2929.702v41.6936c0 .2632.1054.5157.2929.7019.1875.1862.4419.2908.7071.2908h58c.2652 0 .5196-.1046.7071-.2908A.9893.9893 0 0 0 60 58.5696V16.876a.9893.9893 0 0 0-.2929-.702A1.004 1.004 0 0 0 59 15.8833zM14 57.5769H2V17.8687h12v39.7082zm0-41.6936H4v-1.9854h10v1.9854zm15 41.6936h-8v-5.9563h8v5.9563zm10 0h-8v-5.9563h8v5.9563zm5-44.6717v44.6717h-3v-6.949a.989.989 0 0 0-.2929-.7019A1.0036 1.0036 0 0 0 40 49.6352H20c-.2652 0-.5196.1046-.7071.2908a.989.989 0 0 0-.2929.7019v6.949h-3V1.9854h28v10.9198zm2 .9927h10v1.9854H46v-1.9854zm12 43.679H46V17.8687h12v39.7082z" fill="#74AE06"/><path d="M27.72 22.9137l1.874.8259a1.0056 1.0056 0 0 0 .812 0l1.874-.8269c2.2973-1.0151 4.249-2.6693 5.6191-4.7625A12.8479 12.8479 0 0 0 40 11.1184V7.9417a.9892.9892 0 0 0-.2929-.702A1.0037 1.0037 0 0 0 39 6.949c-3.0281-.0067-5.9735-.9813-8.4-2.7796a1.0048 1.0048 0 0 0-.6-.1985c-.2164 0-.4269.0696-.6.1985-2.4265 1.7983-5.3719 2.773-8.4 2.7796-.2652 0-.5196.1046-.7071.2908a.9892.9892 0 0 0-.2929.702v3.1766c.0011 2.4963.7309 4.9389 2.1009 7.0322 1.3701 2.0933 3.3218 3.7477 5.6191 4.7631zM22 8.9027c2.8629-.1843 5.6244-1.1233 8-2.72 2.3755 1.5967 5.1371 2.5357 8 2.72v2.2157a10.8707 10.8707 0 0 1-1.7779 5.9488c-1.1593 1.7708-2.8106 3.1701-4.7541 4.0289L30 21.7463l-1.468-.6473c-1.9438-.8592-3.5952-2.2591-4.7544-4.0304A10.8728 10.8728 0 0 1 22 11.1184V8.9027z" fill="#74AE06"/><path d="M31 8.9344h-2v1.9854h2V8.9344zM34 15.8832h-2v1.9854h2v-1.9854zM26 10.9197h-2v1.9854h2v-1.9854zM36 10.9197h-2v1.9854h2v-1.9854zM28 15.8832h-2v1.9854h2v-1.9854zM20 47.6498h4c.2652 0 .5196-.1046.7071-.2908A.989.989 0 0 0 25 46.6571v-3.9708a.989.989 0 0 0-.2929-.7019A1.0036 1.0036 0 0 0 24 41.6936h-4c-.2652 0-.5196.1046-.7071.2908a.989.989 0 0 0-.2929.7019v3.9708a.989.989 0 0 0 .2929.7019c.1875.1862.4419.2908.7071.2908zm1-3.9708h2v1.9854h-2V43.679zM32 41.6936h-4c-.2652 0-.5196.1046-.7071.2908a.989.989 0 0 0-.2929.7019v3.9708a.989.989 0 0 0 .2929.7019c.1875.1862.4419.2908.7071.2908h4c.2652 0 .5196-.1046.7071-.2908A.9885.9885 0 0 0 33 46.6571v-3.9708a.9885.9885 0 0 0-.2929-.7019A1.0036 1.0036 0 0 0 32 41.6936zm-1 3.9708h-2V43.679h2v1.9854zM40 41.6936h-4c-.2652 0-.5196.1046-.7071.2908a.989.989 0 0 0-.2929.7019v3.9708a.989.989 0 0 0 .2929.7019c.1875.1862.4419.2908.7071.2908h4c.2652 0 .5196-.1046.7071-.2908A.989.989 0 0 0 41 46.6571v-3.9708a.989.989 0 0 0-.2929-.7019A1.0036 1.0036 0 0 0 40 41.6936zm-1 3.9708h-2V43.679h2v1.9854zM20 39.7082h4c.2652 0 .5196-.1046.7071-.2908A.989.989 0 0 0 25 38.7155v-3.9708a.9893.9893 0 0 0-.2929-.702A1.0035 1.0035 0 0 0 24 33.752h-4c-.2652 0-.5196.1045-.7071.2907a.9893.9893 0 0 0-.2929.702v3.9708a.989.989 0 0 0 .2929.7019c.1875.1862.4419.2908.7071.2908zm1-3.9708h2v1.9854h-2v-1.9854zM32 33.752h-4c-.2652 0-.5196.1045-.7071.2907a.9893.9893 0 0 0-.2929.702v3.9708a.989.989 0 0 0 .2929.7019c.1875.1862.4419.2908.7071.2908h4c.2652 0 .5196-.1046.7071-.2908A.9885.9885 0 0 0 33 38.7155v-3.9708a.989.989 0 0 0-.2929-.702A1.0035 1.0035 0 0 0 32 33.752zm-1 3.9708h-2v-1.9854h2v1.9854zM40 33.752h-4c-.2652 0-.5196.1045-.7071.2907a.9893.9893 0 0 0-.2929.702v3.9708a.989.989 0 0 0 .2929.7019c.1875.1862.4419.2908.7071.2908h4c.2652 0 .5196-.1046.7071-.2908A.989.989 0 0 0 41 38.7155v-3.9708a.9893.9893 0 0 0-.2929-.702A1.0035 1.0035 0 0 0 40 33.752zm-1 3.9708h-2v-1.9854h2v1.9854zM20 31.7665h4c.2652 0 .5196-.1046.7071-.2908A.989.989 0 0 0 25 30.7738V26.803a.989.989 0 0 0-.2929-.7019A1.0036 1.0036 0 0 0 24 25.8103h-4c-.2652 0-.5196.1046-.7071.2908A.989.989 0 0 0 19 26.803v3.9708a.989.989 0 0 0 .2929.7019c.1875.1862.4419.2908.7071.2908zm1-3.9708h2v1.9854h-2v-1.9854zM32 25.8103h-4c-.2652 0-.5196.1046-.7071.2908A.989.989 0 0 0 27 26.803v3.9708a.989.989 0 0 0 .2929.7019c.1875.1862.4419.2908.7071.2908h4c.2652 0 .5196-.1046.7071-.2908A.9885.9885 0 0 0 33 30.7738V26.803a.9885.9885 0 0 0-.2929-.7019A1.0036 1.0036 0 0 0 32 25.8103zm-1 3.9708h-2v-1.9854h2v1.9854zM36 25.8103c-.2652 0-.5196.1046-.7071.2908A.989.989 0 0 0 35 26.803v3.9708a.989.989 0 0 0 .2929.7019c.1875.1862.4419.2908.7071.2908h4c.2652 0 .5196-.1046.7071-.2908A.989.989 0 0 0 41 30.7738V26.803a.989.989 0 0 0-.2929-.7019A1.0036 1.0036 0 0 0 40 25.8103h-4zm3 3.9708h-2v-1.9854h2v1.9854zM6 47.6498h4c.2652 0 .5196-.1046.7071-.2908A.989.989 0 0 0 11 46.6571v-3.9708a.989.989 0 0 0-.2929-.7019A1.0036 1.0036 0 0 0 10 41.6936H6c-.2652 0-.5196.1046-.7071.2908A.9888.9888 0 0 0 5 42.6863v3.9708c0 .2633.1054.5158.2929.7019.1875.1862.4419.2908.7071.2908zm1-3.9708h2v1.9854H7V43.679zM6 39.7082h4c.2652 0 .5196-.1046.7071-.2908A.989.989 0 0 0 11 38.7155v-3.9708a.9893.9893 0 0 0-.2929-.702A1.0035 1.0035 0 0 0 10 33.752H6c-.2652 0-.5196.1045-.7071.2907a.9892.9892 0 0 0-.2929.702v3.9708c0 .2633.1054.5158.2929.7019.1875.1862.4419.2908.7071.2908zm1-3.9708h2v1.9854H7v-1.9854zM6 31.7665h4c.2652 0 .5196-.1046.7071-.2908A.989.989 0 0 0 11 30.7738V26.803a.989.989 0 0 0-.2929-.7019A1.0036 1.0036 0 0 0 10 25.8103H6c-.2652 0-.5196.1046-.7071.2908A.9888.9888 0 0 0 5 26.803v3.9708c0 .2633.1054.5158.2929.7019.1875.1862.4419.2908.7071.2908zm1-3.9708h2v1.9854H7v-1.9854zM54 41.6936h-4c-.2652 0-.5196.1046-.7071.2908a.989.989 0 0 0-.2929.7019v3.9708a.989.989 0 0 0 .2929.7019c.1875.1862.4419.2908.7071.2908h4c.2652 0 .5196-.1046.7071-.2908A.989.989 0 0 0 55 46.6571v-3.9708a.989.989 0 0 0-.2929-.7019A1.0036 1.0036 0 0 0 54 41.6936zm-1 3.9708h-2V43.679h2v1.9854zM54 33.752h-4c-.2652 0-.5196.1045-.7071.2907a.9893.9893 0 0 0-.2929.702v3.9708a.989.989 0 0 0 .2929.7019c.1875.1862.4419.2908.7071.2908h4c.2652 0 .5196-.1046.7071-.2908A.989.989 0 0 0 55 38.7155v-3.9708a.9893.9893 0 0 0-.2929-.702A1.0035 1.0035 0 0 0 54 33.752zm-1 3.9708h-2v-1.9854h2v1.9854zM54 25.8103h-4c-.2652 0-.5196.1046-.7071.2908A.989.989 0 0 0 49 26.803v3.9708a.989.989 0 0 0 .2929.7019c.1875.1862.4419.2908.7071.2908h4c.2652 0 .5196-.1046.7071-.2908A.989.989 0 0 0 55 30.7738V26.803a.989.989 0 0 0-.2929-.7019A1.0036 1.0036 0 0 0 54 25.8103zm-1 3.9708h-2v-1.9854h2v1.9854z" fill="#74AE06"/></svg>