<svg width="65" height="60" viewBox="0 0 65 60" fill="none" xmlns="http://www.w3.org/2000/svg"><path d="M64.1684 9.9054a1.573 1.573 0 0 0-1.5112-.2437l-3.9361 1.4159V3.6653C58.7211 1.6441 57.0764 0 55.0557 0H12.5201a.9482.9482 0 0 0-.9484.9483c0 .5244.4245.9489.9484.9489h42.5356c.975 0 1.7682.7931 1.7682 1.7681V9.268H1.8972V3.6653c0-.975.7931-1.7681 1.7681-1.7681h4.4823c.5238 0 .9483-.4245.9483-.9489A.9482.9482 0 0 0 8.1476 0H3.6653C1.6441 0 0 1.6441 0 3.6653v43.8304c0 2.0212 1.6441 3.6654 3.6653 3.6654h17.3453v2.5653h-2.2624c-1.691 0-3.0673 1.3758-3.0673 3.0674v1.7256c0 .8164.6646 1.4806 1.481 1.4806h24.3972c.8164 0 1.4811-.6642 1.4811-1.4806v-1.7256c0-1.6916-1.3763-3.0674-3.0674-3.0674h-2.2623v-2.5653h17.3447c2.0212 0 3.6654-1.6442 3.6654-3.6654V21.611l1.1331-1.4825 1.3991 1.1445a1.5787 1.5787 0 0 0 1.6021.2382 1.5807 1.5807 0 0 0 .9711-1.2962l.9384-8.9002a1.5729 1.5729 0 0 0-.596-1.4094zM41.143 56.7938v1.3095H17.578v-1.3095c0-.6455.5248-1.1703 1.1702-1.1703h21.2246c.6454 0 1.1702.5248 1.1702 1.1703zm-5.3292-3.0674H22.9073v-2.5653h12.9065v2.5653zm21.0101-6.2307c0 .9751-.7932 1.7682-1.7682 1.7682H3.6653c-.975 0-1.7681-.7931-1.7681-1.7682v-2.8796h54.9267v2.8796zm0-4.7767H34.1667l3.7657-4.8736 3.7552 3.2769a1.586 1.586 0 0 0 1.1974.382 1.5843 1.5843 0 0 0 1.0976-.6133l12.8413-16.7987V42.719zm5.1766-23.2853l-1.704-1.3941a.9478.9478 0 0 0-.7106-.2081.947.947 0 0 0-.6439.3662L42.6804 39.4712l-3.7538-3.2759a1.5835 1.5835 0 0 0-1.1934-.382 1.5839 1.5839 0 0 0-1.0966.6069L32.233 42.119h-3.2206l8.1723-10.0798 3.1953 3.2226a1.5845 1.5845 0 0 0 1.2132.4655 1.5821 1.5821 0 0 0 1.152-.6014l3.4242-4.3542c.3236-.4117.2525-1.0082-.1597-1.3319-.4111-.3236-1.0076-.2525-1.3318.1592l-3.2028 4.0735-3.1914-3.2191c-.3158-.3182-.7521-.4863-1.2013-.466a1.5836 1.5836 0 0 0-1.149.5836s-9.7571 12.0595-9.7917 12.148H1.8972V11.1645h54.9267v.5955l-2.6567.9558a1.5842 1.5842 0 0 0-1.0225 1.2186 1.5835 1.5835 0 0 0 .555 1.4905l1.2913 1.0595-7.6445 9.7215c-.3237.4117-.252 1.0077.1596 1.3313.4117.3242 1.0081.2531 1.3318-.1591l8.2188-10.4514a.9486.9486 0 0 0-.1443-1.3195l-1.5785-1.2952 7.4913-2.6948-.8247 7.8165z" fill="#74AE06"/></svg>