<svg width="40" height="40" viewBox="0 0 40 40" fill="none" xmlns="http://www.w3.org/2000/svg"><path fill-rule="evenodd" clip-rule="evenodd" d="M0 20C0 8.9718 8.9718 0 20 0s20 8.9718 20 20-8.9718 20-20 20S0 31.0282 0 20zm20 15.1966l11.7222-11.7222c1.6836-1.684 2.6111-3.9228 2.6111-6.3038 0-2.3811-.9275-4.6203-2.6115-6.3038-1.6836-1.6836-3.9223-2.6112-6.3034-2.6112-1.9844 0-3.8702.6441-5.4184 1.8338-1.5477-1.1897-3.4336-1.8338-5.4184-1.8338-2.3811 0-4.6202.9276-6.3038 2.6112-1.6836 1.6835-2.6111 3.9227-2.6111 6.3038 0 2.3815.927 4.6202 2.611 6.3038L20 35.1966zm1.4733-22.1437c1.0562-1.0472 2.4607-1.6243 3.9544-1.6243 1.4936 0 2.8977.5771 3.9539 1.6247 1.0562 1.0477 1.638 2.4404 1.638 3.922 0 1.4815-.5818 2.8747-1.638 3.9223l-9.3824 9.3065-9.3824-9.3069c-1.0562-1.0477-1.638-2.4404-1.638-3.9219 0-1.4816.5818-2.8747 1.638-3.9224 1.0558-1.0477 2.4603-1.6243 3.9539-1.6243 1.4937 0 2.8982.5766 3.954 1.6239.0748.0742.1509.1544.227.2394l1.2475 1.3909 1.2475-1.3909a5.8193 5.8193 0 0 1 .2266-.239z" fill="#fff"/></svg>