<svg width="60" height="58" viewBox="0 0 60 58" fill="none" xmlns="http://www.w3.org/2000/svg"><path d="M14.0005 35.106h14v-9.9271h-14v9.9271zm2-1.9854v-2.9781h10v2.9781h-10zm10-5.9563v.9927h-10v-.9927h10zM14.0005 39.0767v11.9125h14V39.0767h-14zm6 1.9854v2.9782h-4v-2.9782h4zm-4 4.9636h4v2.9781h-4v-2.9781zm6 2.9781v-2.9781h4v2.9781h-4zm4-4.9635h-4v-2.9782h4v2.9782zM32.0005 35.106h14v-9.9271h-14v9.9271zm2-1.9854v-.9927h10v.9927h-10zm10-5.9563v2.9782h-10v-2.9782h10z" fill="#74AE06"/><path d="M59 47.0185c-.553 0-1 .4447-1 .9927v.9927h-1v-.9927c0-.548-.447-.9927-1-.9927-.553 0-1 .4447-1 .9927v.9927h-1V28.9473c.521.2323 1.073.3603 1.626.3603 1.073 0 2.139-.4328 2.927-1.2746.76-.8121 1.145-1.911 1.057-3.0159-.089-1.1038-.644-2.1293-1.522-2.8123L32.722 2.5086 30 0l-2.657 2.454-25.43 19.7508c-.879.683-1.434 1.7085-1.522 2.8123-.088 1.1049.297 2.2038 1.057 3.0159 1.194 1.2766 3.021 1.5982 4.553.9153v20.0566H5v-.9928c0-.5479-.447-.9927-1-.9927-.553 0-1 .4448-1 .9927v.9928H2v-.9928c0-.5479-.447-.9927-1-.9927-.553 0-1 .4448-1 .9927v8.9344c0 .548.447.9927 1 .9927.553 0 1-.4447 1-.9927v-.9927h1v.9927c0 .548.447.9927 1 .9927.553 0 1-.4447 1-.9927v-.9927h1v1.9854h48v-1.9854h1v.9927c0 .548.447.9927 1 .9927.553 0 1-.4447 1-.9927v-.9927h1v.9927c0 .548.447.9927 1 .9927.553 0 1-.4447 1-.9927v-8.9344c0-.5489-.447-.9936-1-.9936zM2.912 26.6809c-.385-.412-.572-.947-.527-1.5069.045-.5599.314-1.0592.761-1.4057L28.64 3.9639l1.361-1.2558 1.424 1.3094 25.43 19.7508c.446.3465.716.8458.761 1.4057.045.5599-.143 1.0959-.527 1.5069-.708.7565-1.861.8518-2.686.2214L54 26.5946 30 8.2296 6.39 26.2966l-.001.001-.791.6046c-.826.6304-1.978.5351-2.686-.2214zM2 53.9674v-2.9781h1v2.9781H2zm3 0v-2.9781h1v2.9781H5zm29 1.9854V41.0622h10v14.8906H34zm18 0h-6v-16.876H32v16.876H8V27.5704l22-16.8353 22 16.8353v28.3824zm2-1.9854v-2.9781h1v2.9781h-1zm3 0v-2.9781h1v2.9781h-1z" fill="#74AE06"/></svg>