<svg width="200" height="155.58" xmlns="http://www.w3.org/2000/svg"><path d="M195.9293 153.3962v.4048h.3733c.0825 0 .1532-.0197.2043-.0511.0472-.0314.0747-.0864.0747-.1533s-.0275-.1178-.0747-.1493c-.051-.0353-.1218-.051-.2043-.051zm.3772-.2829c.1925 0 .3419.0432.448.1297s.1572.2043.1572.3536c0 .1258-.0393.228-.1258.3105-.0825.0786-.2004.1297-.3576.1493l.4951.5698h-.385l-.4598-.5659h-.1493v.566h-.3223v-1.513zm-.0982 2.0356c.1768 0 .3418-.0354.4912-.1022.1532-.0668.2868-.1572.4008-.2712s.2043-.2475.2711-.4047c.0629-.1533.0983-.3183.0983-.4951s-.0354-.342-.0983-.4952c-.0668-.1532-.1572-.2908-.2711-.4047s-.2476-.2044-.4008-.2712c-.1494-.0628-.3144-.0943-.4912-.0943s-.3459.0315-.4991.0943c-.1572.0668-.2947.1572-.4087.2712s-.2043.2515-.2672.4047c-.0668.1533-.0982.3183-.0982.4952s.0314.3418.0982.495c.0629.1573.1533.2909.2672.4048s.2515.2044.4087.2712c.1532.0668.3222.1022.499.1022m0-2.904c.2319 0 .4441.0432.6484.1296.2005.0826.3734.2004.5266.3498.1493.1454.2672.3183.3537.5187.0864.1965.1297.4087.1297.6327s-.0433.4361-.1297.6326-.2044.3694-.3537.5187c-.1532.1454-.3261.2633-.5266.3498-.2043.0864-.4165.1296-.6483.1296-.2358 0-.452-.0432-.6563-.1296s-.3812-.2044-.5305-.3498c-.1493-.1493-.2672-.3222-.3537-.5187s-.1296-.4087-.1296-.6326.0432-.4362.1296-.6327c.0865-.2004.2044-.3733.3537-.5187a1.5799 1.5799 0 0 1 .5305-.3498c.2043-.0864.4205-.1296.6563-.1296M43.106 146.4172c0-2.8843 1.8902-5.2539 4.9789-5.2539 2.9511 0 4.9434 2.2674 4.9434 5.254s-1.9923 5.2538-4.9434 5.2538c-3.0887 0-4.9789-2.3695-4.9789-5.2539m13.2861 0v-8.205h-3.5681v1.9923c-1.1317-1.4776-2.849-2.405-5.1832-2.405-4.6016 0-8.209 3.6075-8.209 8.6177 0 5.0142 3.6074 8.6177 8.209 8.6177 2.3342 0 4.0515-.9274 5.1832-2.405v1.9924h3.5681zm120.5766 0c0-2.8843 1.8902-5.2539 4.9788-5.2539 2.9551 0 4.9435 2.2674 4.9435 5.254s-1.9884 5.2538-4.9435 5.2538c-3.0886 0-4.9788-2.3695-4.9788-5.2539m13.29 0v-14.795h-3.572v8.5823c-1.1318-1.4776-2.849-2.405-5.1832-2.405-4.6016 0-8.209 3.6075-8.209 8.6177 0 5.0142 3.6074 8.6177 8.209 8.6177 2.3342 0 4.0514-.9274 5.1832-2.405v1.9924h3.572zm-89.5758-5.4229c2.2988 0 3.7764 1.4422 4.1536 3.9808h-8.5155c.3812-2.3696 1.8194-3.9808 4.3619-3.9808m.0707-3.1947c-4.8098 0-8.1736 3.5013-8.1736 8.6176 0 5.2186 3.5013 8.6177 8.4133 8.6177 2.4718 0 4.7352-.617 6.7276-2.2988l-1.7487-2.6447c-1.3754 1.0964-3.128 1.7173-4.7745 1.7173-2.2989 0-4.3933-1.065-4.9081-4.02h12.1857c.0354-.444.0708-.892.0708-1.3715-.0354-5.1163-3.1948-8.6176-7.7925-8.6176m43.0844 8.6176c0-2.8843 1.8902-5.2539 4.9789-5.2539 2.9511 0 4.9434 2.2674 4.9434 5.254s-1.9923 5.2538-4.9434 5.2538c-3.0887 0-4.9789-2.3695-4.9789-5.2539m13.2861 0v-8.205h-3.5681v1.9923c-1.1357-1.4776-2.849-2.405-5.1832-2.405-4.6016 0-8.209 3.6075-8.209 8.6177 0 5.0142 3.6074 8.6177 8.209 8.6177 2.3342 0 4.0475-.9274 5.1832-2.405v1.9924h3.5681zm-33.4372 0c0 4.9789 3.466 8.6177 8.7552 8.6177 2.4718 0 4.1183-.5502 5.9023-1.957l-1.7133-2.8843c-1.34.9628-2.7468 1.4775-4.295 1.4775-2.849-.0353-4.9435-2.0945-4.9435-5.2539s2.0945-5.2185 4.9434-5.2539c1.5483 0 2.9551.5148 4.2951 1.4776l1.7133-2.8844c-1.784-1.4068-3.4305-1.957-5.9023-1.957-5.2892 0-8.7552 3.6389-8.7552 8.6177m46.0041-8.6176c-2.059 0-3.399.9627-4.3265 2.4049v-1.9923h-3.5366v16.41h3.572v-9.1992c0-2.7153 1.167-4.2243 3.5013-4.2243.723 0 1.4775.1022 2.232.4126l1.1003-3.3638c-.7898-.3104-1.8194-.448-2.5425-.448m-95.651 1.7173c-1.7172-1.1317-4.0828-1.7172-6.6921-1.7172-4.1576 0-6.8336 1.9923-6.8336 5.2539 0 2.676 1.9923 4.3265 5.6626 4.8413l1.6858.2397c1.957.275 2.8804.7898 2.8804 1.7172 0 1.2693-1.3046 1.9923-3.741 1.9923-2.4718 0-4.2558-.7898-5.4583-1.7172l-1.6818 2.7782c1.957 1.4422 4.4286 2.1299 7.1047 2.1299 4.7391 0 7.486-2.232 7.486-5.356 0-2.8844-2.1613-4.3934-5.7334-4.9082l-1.6818-.2436c-1.5444-.2044-2.7822-.5109-2.7822-1.6112 0-1.2024 1.167-1.9216 3.124-1.9216 2.0945 0 4.1222.7899 5.1164 1.4068zm46.0395-1.7172c-2.0591 0-3.3991.9627-4.3226 2.4049v-1.9923h-3.5366v16.41h3.568v-9.1992c0-2.7153 1.1672-4.2243 3.5014-4.2243.723 0 1.4775.1022 2.232.4126l1.1003-3.3638c-.7899-.3104-1.8194-.448-2.5425-.448m-30.4506.4127h-5.8355v-4.9789H80.186v4.9789h-3.3284v3.2616h3.3284v7.4859c0 3.8078 1.4775 6.0752 5.698 6.0752 1.5482 0 3.3323-.4794 4.464-1.2693l-1.0296-3.0572c-1.0649.617-2.232.9274-3.1594.9274-1.784 0-2.3656-1.1003-2.3656-2.7468v-7.4152h5.8355zm-53.3526 16.41v-10.2995c0-3.8785-2.4717-6.4878-6.4563-6.5231-2.0945-.0354-4.2558.617-5.7687 2.9197-1.1317-1.8194-2.9158-2.9197-5.4229-2.9197-1.7526 0-3.466.5147-4.806 2.4363v-2.0237h-3.572v16.41h3.6035v-9.097c0-2.849 1.5797-4.3619 4.02-4.3619 2.3696 0 3.5681 1.5444 3.5681 4.3265v9.1325h3.6074v-9.0971c0-2.849 1.6465-4.3619 4.016-4.3619 2.4365 0 3.6035 1.5444 3.6035 4.3265v9.1325z" fill="#231f20"/><path d="M198.1298 100.0476v-2.397h-.6248l-.723 1.6465-.7191-1.6465h-.6288v2.397h.444V98.24l.676 1.56h.4597l.676-1.564v1.8116zm-3.965 0v-1.9883h.8017v-.4048h-2.0434v.4048h.8016v1.9883z" fill="#f79410"/><path d="M127.0822 110.359h-54.078V13.1715h54.078z" fill="#ff5f00"/><path d="M76.4686 61.7574c0-19.715 9.2307-37.2764 23.6053-48.5938C89.5622 4.888 76.2957-.0517 61.878-.0517 27.7453-.0517.0768 27.6207.0768 61.7573s27.6685 61.8092 61.8013 61.8092c14.4177 0 27.6842-4.9396 38.196-13.2154-14.3747-11.3173-23.6054-28.8788-23.6054-48.5937" fill="#eb001b"/><path d="M200.016 61.7574c0 34.1366-27.6684 61.809-61.8012 61.809-14.4177 0-27.6842-4.9395-38.1998-13.2153 14.3785-11.3173 23.6091-28.8788 23.6091-48.5937s-9.2306-37.2764-23.6091-48.5938C110.5306 4.888 123.797-.0517 138.2148-.0517c34.1328 0 61.8013 27.6724 61.8013 61.809" fill="#f79e1b"/></svg>