<svg width="311" height="136" viewBox="0 0 311 136" fill="none" xmlns="http://www.w3.org/2000/svg"><path d="M143.92 39.7656v26.4121h-17.195c-5.699.0068-11.162 2.2444-15.191 6.2219-4.03 3.9775-6.297 9.3702-6.303 14.9952v.6944c-.044 12.1668-4.841 23.8488-13.3927 32.6108-8.5517 8.762-20.1985 13.93-32.5142 14.427h-4.4552c-12.3157-.497-23.9625-5.665-32.5142-14.427-8.5517-8.762-13.3489-20.444-13.3923-32.6108V.8804h26.7571v87.2088c.0069 5.5023 2.2243 10.7772 6.1658 14.6678 3.9415 3.891 9.2853 6.08 14.8595 6.086h.7034c5.5742-.006 10.918-2.195 14.8595-6.086 3.9415-3.8906 6.1589-9.1655 6.1658-14.6678v-.6944c.0138-12.6279 5.1018-24.7346 14.1477-33.6639 9.0458-8.9293 21.3108-13.9517 34.1038-13.9653h17.195z" stroke="#B8D53E" stroke-width="1.6" stroke-miterlimit="10"/><path d="M44.6559 2.6548H0l6.0184 9.3613h32.6192l6.0183-9.3613z" fill="#B8D53D"/><path d="M37.0743 12.0166H7.6077v5.761h29.4666v-5.761z" fill="#B8D53E"/><path d="M143.165 74.8699V30.79l-9.484 5.9408v32.1983l9.484 5.9408z" fill="#B8D53D"/><path d="M133.681 38.2998h-5.836v29.0867h5.836V38.2998z" fill="#B8D53E"/><path d="M309.361 39.7656v26.4121h-17.56c-5.699.0068-11.162 2.2444-15.191 6.2219-4.03 3.9775-6.297 9.3702-6.303 14.9952v.6944c-.043 12.1498-4.825 23.8168-13.355 32.5768-8.53 8.759-20.15 13.939-32.448 14.461h-4.455c-12.316-.497-23.962-5.665-32.514-14.427-8.552-8.762-13.349-20.444-13.392-32.6108V.8804H200.9v87.2088c.007 5.5023 2.224 10.7772 6.165 14.6678 3.942 3.891 9.286 6.08 14.86 6.086h.703c5.575-.006 10.918-2.195 14.86-6.086 3.941-3.8906 6.159-9.1655 6.166-14.6678v-.6944c.013-12.6101 5.087-24.7013 14.111-33.6276 9.023-8.9264 21.261-13.9608 34.036-14.0016h17.56z" stroke="#B8D53E" stroke-width="1.6" stroke-miterlimit="10"/><path d="M209.836 2.6548H165.18l6.018 9.3613h32.62l6.018-9.3613z" fill="#B8D53D"/><path d="M202.254 12.0166h-29.466v5.761h29.466v-5.761z" fill="#B8D53E"/><path d="M308.345 74.8699V30.79l-9.484 5.9408v32.1983l9.484 5.9408z" fill="#B8D53D"/><path d="M298.861 38.2998h-5.836v29.0867h5.836V38.2998z" fill="#B8D53E"/><path d="M190.947 88.218c1.439 0 2.606-1.1515 2.606-2.5719 0-1.4204-1.167-2.5719-2.606-2.5719-1.439 0-2.605 1.1515-2.605 2.5719 0 1.4204 1.166 2.5719 2.605 2.5719zM201.942 110.875c1.439 0 2.605-1.151 2.605-2.572 0-1.42-1.166-2.572-2.605-2.572s-2.606 1.152-2.606 2.572c0 1.421 1.167 2.572 2.606 2.572zM183.913 83.0742c1.439 0 2.605-1.1514 2.605-2.5718 0-1.4203-1.166-2.5717-2.605-2.5717s-2.606 1.1514-2.606 2.5717c0 1.4204 1.167 2.5718 2.606 2.5718zM192.146 54.0645c1.439 0 2.605-1.1515 2.605-2.5718 0-1.4204-1.166-2.5718-2.605-2.5718s-2.606 1.1514-2.606 2.5718c0 1.4203 1.167 2.5718 2.606 2.5718zM252.277 80.5024c1.439 0 2.606-1.1514 2.606-2.5717 0-1.4204-1.167-2.5718-2.606-2.5718-1.439 0-2.605 1.1514-2.605 2.5718 0 1.4203 1.166 2.5717 2.605 2.5717zM260.172 99.6619c1.439 0 2.605-1.1514 2.605-2.5717s-1.166-2.5716-2.605-2.5716-2.606 1.1513-2.606 2.5716c0 1.4203 1.167 2.5717 2.606 2.5717zM208.455 118.77c1.439 0 2.606-1.151 2.606-2.571 0-1.421-1.167-2.572-2.606-2.572-1.439 0-2.605 1.151-2.605 2.572 0 1.42 1.166 2.571 2.605 2.571zM219.736 120.082c1.439 0 2.606-1.151 2.606-2.572 0-1.42-1.167-2.572-2.606-2.572-1.439 0-2.605 1.152-2.605 2.572 0 1.421 1.166 2.572 2.605 2.572zM233.024 116.79c1.439 0 2.605-1.152 2.605-2.572 0-1.42-1.166-2.572-2.605-2.572s-2.606 1.152-2.606 2.572c0 1.42 1.167 2.572 2.606 2.572zM198.529 119.876c1.439 0 2.605-1.151 2.605-2.571 0-1.421-1.166-2.572-2.605-2.572s-2.606 1.151-2.606 2.572c0 1.42 1.167 2.571 2.606 2.571zM265.851 61.8828c1.439 0 2.606-1.1514 2.606-2.5718 0-1.4203-1.167-2.5717-2.606-2.5717-1.439 0-2.605 1.1514-2.605 2.5717 0 1.4204 1.166 2.5718 2.605 2.5718zM193.318 101.719c1.439 0 2.605-1.151 2.605-2.5712 0-1.4203-1.166-2.5716-2.605-2.5716s-2.605 1.1513-2.605 2.5716c0 1.4202 1.166 2.5712 2.605 2.5712zM245.191 111.235c1.439 0 2.605-1.152 2.605-2.572 0-1.42-1.166-2.572-2.605-2.572s-2.606 1.152-2.606 2.572c0 1.42 1.167 2.572 2.606 2.572zM183.704 52.3931c1.439 0 2.606-1.1515 2.606-2.5718 0-1.4204-1.167-2.5718-2.606-2.5718-1.439 0-2.605 1.1514-2.605 2.5718 0 1.4203 1.166 2.5718 2.605 2.5718zM185.346 65.6118c1.438 0 2.605-1.1514 2.605-2.5718 0-1.4203-1.167-2.5717-2.605-2.5717-1.439 0-2.606 1.1514-2.606 2.5717 0 1.4204 1.167 2.5718 2.606 2.5718zM211.451 126.717c1.439 0 2.606-1.152 2.606-2.572 0-1.42-1.167-2.572-2.606-2.572-1.439 0-2.605 1.152-2.605 2.572 0 1.42 1.166 2.572 2.605 2.572zM188.159 40.8716c1.439 0 2.606-1.1514 2.606-2.5718 0-1.4203-1.167-2.5718-2.606-2.5718-1.439 0-2.605 1.1515-2.605 2.5718 0 1.4204 1.166 2.5718 2.605 2.5718zM243.471 122.037c1.439 0 2.606-1.152 2.606-2.572 0-1.42-1.167-2.572-2.606-2.572-1.439 0-2.605 1.152-2.605 2.572 0 1.42 1.166 2.572 2.605 2.572zM255.508 92.2295c1.439 0 2.605-1.1514 2.605-2.5718 0-1.4203-1.166-2.5718-2.605-2.5718s-2.605 1.1515-2.605 2.5718c0 1.4204 1.166 2.5718 2.605 2.5718zM256.446 109.949c1.439 0 2.605-1.152 2.605-2.572 0-1.42-1.166-2.572-2.605-2.572s-2.605 1.152-2.605 2.572c0 1.42 1.166 2.572 2.605 2.572zM231.539 125.92c1.439 0 2.605-1.151 2.605-2.571 0-1.421-1.166-2.572-2.605-2.572s-2.606 1.151-2.606 2.572c0 1.42 1.167 2.571 2.606 2.571zM251.808 101.719c1.439 0 2.606-1.151 2.606-2.5712 0-1.4203-1.167-2.5716-2.606-2.5716-1.439 0-2.605 1.1513-2.605 2.5716 0 1.4202 1.166 2.5712 2.605 2.5712zM260.641 72.7351c1.439 0 2.605-1.1514 2.605-2.5716 0-1.4203-1.166-2.5717-2.605-2.5717s-2.606 1.1514-2.606 2.5717c0 1.4202 1.167 2.5716 2.606 2.5716zM262.126 82.405c1.439 0 2.605-1.1513 2.605-2.5716 0-1.4203-1.166-2.5717-2.605-2.5717s-2.606 1.1514-2.606 2.5717 1.167 2.5716 2.606 2.5716zM271.323 69.1611c1.439 0 2.605-1.1514 2.605-2.5717 0-1.4204-1.166-2.5718-2.605-2.5718s-2.606 1.1514-2.606 2.5718c0 1.4203 1.167 2.5717 2.606 2.5717zM221.534 130.163c1.439 0 2.605-1.151 2.605-2.572 0-1.42-1.166-2.571-2.605-2.571s-2.605 1.151-2.605 2.571c0 1.421 1.166 2.572 2.605 2.572zM276.82 56.6365c1.439 0 2.605-1.1515 2.605-2.5719 0-1.4204-1.166-2.5719-2.605-2.5719s-2.605 1.1515-2.605 2.5719c0 1.4204 1.166 2.5719 2.605 2.5719zM188.837 110.875c1.439 0 2.605-1.151 2.605-2.572 0-1.42-1.166-2.572-2.605-2.572s-2.606 1.152-2.606 2.572c0 1.421 1.167 2.572 2.606 2.572zM191.442 77.1331c1.439 0 2.606-1.1514 2.606-2.5717s-1.167-2.5717-2.606-2.5717c-1.439 0-2.605 1.1514-2.605 2.5717s1.166 2.5717 2.605 2.5717zM188.003 97.3223c1.439 0 2.605-1.1515 2.605-2.5718 0-1.4204-1.166-2.5718-2.605-2.5718s-2.605 1.1514-2.605 2.5718c0 1.4203 1.166 2.5718 2.605 2.5718zM25.9494 119.079c3.5973 0 6.5135-2.879 6.5135-6.429 0-3.551-2.9162-6.43-6.5135-6.43-3.5972 0-6.5134 2.879-6.5134 6.43 0 3.55 2.9162 6.429 6.5134 6.429zM60.9916 133.507c4.3168 0 7.8161-3.454 7.8161-7.715 0-4.262-3.4993-7.716-7.8161-7.716-4.3167 0-7.8161 3.454-7.8161 7.716 0 4.261 3.4994 7.715 7.8161 7.715zM40.3831 122.5c4.3167 0 7.8161-3.455 7.8161-7.716s-3.4994-7.715-7.8161-7.715c-4.3167 0-7.8161 3.454-7.8161 7.715 0 4.261 3.4994 7.716 7.8161 7.716zM83.7365 123.014c4.3167 0 7.8161-3.455 7.8161-7.716s-3.4994-7.715-7.8161-7.715c-4.3167 0-7.8161 3.454-7.8161 7.715 0 4.261 3.4994 7.716 7.8161 7.716z" fill="#161719"/><path d="M69.4851 120.673c3.5973 0 6.5134-2.878 6.5134-6.429s-2.9161-6.43-6.5134-6.43c-3.5973 0-6.5134 2.879-6.5134 6.43 0 3.551 2.9161 6.429 6.5134 6.429zM33.6873 108.715c2.8778 0 5.2107-2.303 5.2107-5.144 0-2.84-2.3329-5.1433-5.2107-5.1433s-5.2107 2.3033-5.2107 5.1433c0 2.841 2.3329 5.144 5.2107 5.144zM53.4361 120.416c2.8778 0 5.2107-2.303 5.2107-5.143 0-2.841-2.3329-5.144-5.2107-5.144s-5.2108 2.303-5.2108 5.144c0 2.84 2.333 5.143 5.2108 5.143z" fill="#161719"/><path d="M74.6697 129.983c2.8778 0 5.2108-2.302 5.2108-5.143 0-2.841-2.333-5.144-5.2108-5.144-2.8778 0-5.2107 2.303-5.2107 5.144s2.3329 5.143 5.2107 5.143zM47.7824 131.089c2.8778 0 5.2107-2.303 5.2107-5.144 0-2.84-2.3329-5.143-5.2107-5.143s-5.2107 2.303-5.2107 5.143c0 2.841 2.3329 5.144 5.2107 5.144zM81.3655 107.609c2.8778 0 5.2108-2.303 5.2108-5.144 0-2.8403-2.333-5.1432-5.2108-5.1432-2.8778 0-5.2107 2.3029-5.2107 5.1432 0 2.841 2.3329 5.144 5.2107 5.144z" fill="#161719"/></svg>