<svg width="60" height="60" viewBox="0 0 60 60" fill="none" xmlns="http://www.w3.org/2000/svg"><path d="M49.0973 38.9481a.882.882 0 0 0-.8367-.9249.8804.8804 0 0 0-.9247.8368c-.1084 2.1711-1.3143 4.292-3.1516 5.6476-1.0234-2.3178-3.2732-3.3798-5.0989-2.9463-1.4167.3347-2.5262 1.7108-2.5262 3.1331 0 2.119 2.5195 3.9113 6.3901 2.4741-.0137.9832-.3043 1.9715-.8221 2.7911-1.0563 1.6741-3.5517 3.0128-5.5464 3.5242.0171-2.5882-1.3085-3.7929-3.0235-7.2827-1.3039-2.4117-4.3126-3.3001-6.7144-2.001-.6381.2828-1.7622 1.2163-3.6823 1.2163a5.6961 5.6961 0 0 1-5.0161-2.9876l-6.5581-12.1255c-.4496-.8309-.6872-1.7661-.6872-2.7038a5.6961 5.6961 0 0 1 2.9875-5.0161l.9783-.5291c2.4116-1.3042 3.2999-4.3126 2.0009-6.7146l-2.2274-4.1185c-2.3406-4.3276-8.363-4.6065-11.1501-.621-4.2562 6.086-4.5858 13.9063-1.1634 20.2342 10.8673 20.0231 10.3544 19.3031 11.3285 20.737a.8818.8818 0 0 0 1.4589-.991c-.887-1.3055-.2992-.4276-11.236-20.5848-1.3823-2.5554-2.1128-5.4314-2.1128-8.3167 0-3.6209 1.096-7.1022 3.17-10.0678 2.0454-2.9252 6.4467-2.7063 8.1532.4494l2.2275 4.1185c.8399 1.5533.2585 3.4875-1.2885 4.3242l-.9782.5291a7.4576 7.4576 0 0 0-3.9122 6.5674c0 1.2299.3111 2.4551.8995 3.5429l6.558 12.1252c1.964 3.6311 6.4936 4.969 10.1105 3.0127l.9783-.5291c1.5532-.8398 3.4875-.2586 4.3242 1.2886 1.8394 3.6647 2.8121 4.4889 2.8121 6.3987 0 2.2691-1.7076 4.6796-4.5655 4.7859-4.9519.1828-9.6464-1.7386-12.9992-5.0653a.882.882 0 0 0-1.2423 1.2521c3.7645 3.735 8.9603 5.7745 14.307 5.5757 2.8533-.106 5.2043-2.0241 5.9862-4.6387 2.6229-.488 5.9021-2.2091 7.3143-4.4472.8425-1.3339 1.2344-3 1.0498-4.589 2.5668-1.6289 4.2839-4.4554 4.429-7.3641zm-10.7744 5.7462c0-.6477.6274-1.4657 1.5929-1.4657.9974 0 2.1797.7572 2.7265 2.1639-2.2507.9579-4.3194.4877-4.3194-.6982zM40.1914 7.7871c-1.5702 0-2.8476 1.2776-2.8476 2.8477 0 1.57 1.2774 2.8475 2.8476 2.8475 1.5702 0 2.8475-1.2775 2.8475-2.8475 0-1.5701-1.2773-2.8477-2.8475-2.8477zm0 3.9314c-.5977 0-1.0839-.4862-1.0839-1.0837 0-.5976.4862-1.0839 1.0839-1.0839.5977 0 1.0839.4862 1.0839 1.0839 0 .5976-.4862 1.0837-1.0839 1.0837z" fill="#74AE06"/><path d="M43.6072 25.654v-9.4892c0-.6669-.5427-1.2097-1.2098-1.2097h-4.2343c-.8014 0-1.4536.652-1.4536 1.4536v1.5862c0 .6756.4634 1.2451 1.089 1.4072v6.2517c-.7732.0321-1.3925.6713-1.3925 1.4524v1.7703c0 .8014.652 1.4536 1.4535 1.4536h5.6868c.8015 0 1.4535-.6521 1.4535-1.4536v-1.7703c0-.781-.6193-1.4202-1.3926-1.4522zm-.371 2.9123h-5.0664v-1.1499c.7685-.0035 1.3927-.6297 1.3927-1.3992v-6.9333c0-.6649-.4663-1.223-1.0891-1.3645v-1.0005h3.3701c.0292 10.0347-.0682 9.6411.0798 9.9642.3425.8695 1.2609.7195 1.3129.7332v1.15z" fill="#74AE06"/><path d="M54.8016 18.6951c-.4862-.0178-.8956.3624-.9136.849-.4234 11.562-14.4985 16.9531-22.5681 8.7899-5.1189-5.1778-5.0871-13.524.1073-18.6588 5.1672-5.108 13.5143-5.097 18.6588.1076 1.7691 1.7891 2.9835 4.0282 3.5125 6.4753.1029.476.5723.779 1.0482.6756a.8817.8817 0 0 0 .6757-1.0483C52.8603 4.4956 38.6439.0613 30.1875 8.4208c-5.8939 5.8262-5.9198 15.2882-.1218 21.1532 5.8362 5.9039 15.2995 5.9084 21.1532.1218 2.7181-2.6871 4.2921-6.2693 4.4319-10.0871.0176-.4867-.3624-.8958-.8492-.9136z" fill="#74AE06"/><path d="M54.2542 5.6626c-7.4351-7.5211-19.4905-7.527-26.9473-.1552-7.5212 7.4351-7.5269 19.4901-.1553 26.9473 4.5062 4.559 2.966 7.6184 2.966 8.6554 0 1.6338 1.825 2.6264 3.2009 1.7168.4024-.2659.803-.5438 1.1911-.8257a.882.882 0 0 0-1.0369-1.4268 30.661 30.661 0 0 1-1.1267.7811c-.2369.1565-.515-.0646-.4546-.327.6921-3.0254.0662-6.2191-3.4853-9.8136-6.7085-6.7863-6.6665-17.7238.1408-24.4531C35.3183.0678 46.2573.0816 53 6.9025c6.7083 6.7863 6.6664 17.7238-.1408 24.4531-3.7815 3.7383-8.9549 5.4809-14.159 4.8773-.7239-.0837-.6631.3861-2.5844 2.1719a.882.882 0 0 0 1.201 1.2919 26.688 26.688 0 0 0 1.6417-1.6641c5.596.5111 11.0927-1.421 15.1408-5.4226 7.5078-7.4224 7.5408-19.4756.1549-26.9474z" fill="#74AE06"/></svg>