<svg xmlns="http://www.w3.org/2000/svg" width="111.774" height="50.7731" viewBox="0 0 29.5735 13.4337"><g fill="none"><path d="M14.493 7.5978h.4597v1.03h.332l.5959-1.03h.5024l-.7152 1.2089v.0084l.7578 1.3192h-.5194l-.613-1.1067h-.3318v1.1067h-.4599V7.5975h-.0084zm2.9626.6725c.553 0 1.0044.4001 1.0044.9533 0 .562-.4427.9536-.996.9536-.5534 0-.996-.3916-.996-.9536-.0085-.5617.4341-.9533.9876-.9533zm1.3618.0424h.4342V9.743h.5705v-1.43h.4339v1.43h.5704v-1.43h.4342v1.8213h-2.4262V8.3127zm3.7288-.0424c.5191 0 .8086.3832.8086.86a1.27 1.27 0 0 1-.017.1785h-1.2514c.0256.3149.2725.4853.545.4853.187 0 .3744-.0852.5191-.1958l.1789.3236c-.1874.1614-.4683.2638-.7321.2638-.6046 0-.979-.4342-.979-.9536 0-.5702.3829-.9618.9279-.9618zm1.0213 1.4812c.2215-.0341.3831-.2212.3831-.8684V8.313h1.3282v1.8214h-.4514V8.6786h-.4426v.2043c0 .7916-.2127 1.2514-.8173 1.2684v-.4zm3.0051-1.4812c.5191 0 .8086.3832.8086.86a1.27 1.27 0 0 1-.017.1785h-1.2514c.0257.3149.2725.4853.545.4853.187 0 .3744-.0852.5191-.1958l.1789.3236c-.1873.1614-.4683.2638-.7321.2638-.6043 0-.979-.4342-.979-.9536 0-.5702.3832-.9618.928-.9618zm1.1833.0424h.451v.6982h.2215l.4427-.698h.5021l-.5789.8681v.0088l.647.9445h-.5276l-.4768-.7403h-.2381v.7403h-.4517V8.3127h.0085zm-10.3003 1.473c.298 0 .5448-.23.5448-.5705 0-.332-.2469-.5705-.545-.5705-.2977 0-.536.2302-.536.5705 0 .3405.238.5704.5362.5704zm5.4396-.7917c0-.2384-.162-.3831-.3662-.3831-.2297 0-.4.1532-.4426.383zm4.0264 0c0-.2384-.1616-.3831-.3659-.3831-.2302 0-.4003.1532-.443.383z" fill="#2d3540"/><path d="M20.852 2.073v4.299a.1164.1164 0 0 1-.119.119h-.8768a.1164.1164 0 0 1-.119-.119V2.073a.1164.1164 0 0 1 .119-.119h.8768a.1164.1164 0 0 1 .119.119zm6.8443-.119c.0342 0 .0767.0169.119.051.0257.0254.0257.068.0173.1021l-1.4473 4.3075a.1212.1212 0 0 1-.1106.0767h-.7832c-.051 0-.0936-.0257-.1105-.0767l-.8433-2.5112-.8427 2.5109a.1212.1212 0 0 1-.1106.0767h-.7831c-.0511 0-.0937-.0254-.1106-.0767l-1.4473-4.3074c-.0085-.0339-.0085-.068.017-.1019.0171-.0341.0597-.051.0936-.051h.979c.051 0 .0936.0338.1108.0849l.7744 2.5453.8515-2.5453a.1212.1212 0 0 1 .1106-.0767h.6895c.051 0 .0936.0256.1106.0767l.8514 2.5453.7747-2.5453a.1175.1175 0 0 1 .1106-.085h.979zm1.4812 0c.0595 0 .1106.051.119.119v4.299a.1164.1164 0 0 1-.119.119h-.8769a.1164.1164 0 0 1-.119-.119V2.073a.1164.1164 0 0 1 .119-.119zM19.2262 6.338c.051.0595.0085.1445-.0682.1445h-1.0727a.1373.1373 0 0 1-.1106-.0511l-.1786-.2212c-.3746.2381-.8175.3831-1.2856.3831-1.3107 0-2.3749-1.0641-2.3749-2.3751 0-1.311 1.0642-2.3752 2.375-2.3752 1.311 0 2.375 1.0641 2.375 2.3752 0 .4683-.1362.911-.3746 1.2853l.7152.8342zm-8.964 2.0854c.2214.0852.3066.417.3235.5618.0341.264-.0423.3661-.1275.3661s-.2045-.102-.332-.3064c-.1279-.2045-.179-.4341-.1107-.5535.0424-.0767.136-.1106.2469-.068zm-1.2939.962c.1363 0 .2895.0596.4257.1787.2638.2214.3406.4767.2043.664-.0767.0937-.2043.1533-.349.1533-.1447 0-.298-.0511-.4-.1448-.2384-.2042-.3064-.545-.1535-.732.0598-.0768.1535-.1191.2725-.1191zm-2.9792 2.4602c-3.235 0-5.8568-2.622-5.8568-5.8569 0-3.2347 2.622-5.8565 5.8565-5.8565 3.2348 0 5.8569 2.622 5.8569 5.8565 0 1.098-.3064 2.1284-.8255 3.0052-.0172.0254-.0598.017-.0683-.0172-.2043-1.4386-1.081-2.2305-2.358-2.4686-.1108-.0172-.1278-.0852.017-.1021.3915-.0341.9448-.0257 1.2342.0254.017-.1447.0257-.298.0257-.4511 0-2.1368-1.7367-3.8735-3.8735-3.8735-2.1365 0-3.8732 1.7367-3.8732 3.8735s1.7367 3.8735 3.8735 3.8735h.1786a5.2253 5.2253 0 0 1-.0768-1.0472c.0088-.2384.0598-.2726.162-.0852.5363.9279 1.3025 1.762 2.8006 2.0941 1.2258.2726 2.4516.5874 3.771 2.2643.1191.1448-.0594.298-.1957.1789-1.3449-1.192-2.5707-1.5835-3.686-1.5835-1.2514.0087-2.1026.1704-2.9625.1704zM17.098 5.3845l-.4683-.5704c-.0508-.0595-.0082-.1532.0683-.1532h.9874c.051-.1363.0767-.2895.0767-.4426 0-.7065-.5278-1.3195-1.2515-1.3195-.7233 0-1.2514.613-1.2514 1.3195 0 .7064.528 1.311 1.2514 1.311.2043.0084.4088-.0511.5874-.1448z" fill="#ff8c00"/></g></svg>