<svg width="60" height="60" viewBox="0 0 60 60" fill="none" xmlns="http://www.w3.org/2000/svg"><path d="M45.9758 26.4927c0-1.8995-1.5452-3.4446-3.4447-3.4446h-6.3307c1.538-1.7288 2.5433-3.6975 2.7375-5.4636.1185-1.0787-.2147-2.1495-.9147-2.9378-.6397-.7206-1.5145-1.1222-2.4633-1.131l-.0329-.0001c-.9177 0-1.779.3535-2.4291.9975-.6501.6442-1.0099 1.5024-1.0141 2.4182-.0334.2005-.3861.8918-1.2492 1.7126-.7067.6722-1.9273 1.5962-3.7295 2.1813-.7067.2294-1.3525.6519-1.9194 1.2557a12.4337 12.4337 0 0 1-1.2947 1.1929 1.9287 1.9287 0 0 0-.9056-.2254h-6.0126c-1.0706 0-1.9416.8709-1.9416 1.9415v16.0334c0 1.0706.871 1.9415 1.9416 1.9415h6.0126c.7298 0 1.3662-.4052 1.6979-1.002h15.3425c1.6232 0 2.9437-1.3205 2.9437-2.9437a2.926 2.926 0 0 0-.4091-1.4959c.8457-.5177 1.4111-1.4503 1.4111-2.5125a2.925 2.925 0 0 0-.4091-1.4959c.8458-.5177 1.4112-1.4503 1.4112-2.5125a2.9273 2.9273 0 0 0-.5122-1.6577c.9132-.6203 1.5144-1.6672 1.5144-2.8519zm-3.4447 1.5658H42.03a.9395.9395 0 0 0 0 1.879c.5871 0 1.0647.4776 1.0647 1.0647s-.4776 1.0648-1.0647 1.0648h-1.0021a.9395.9395 0 0 0 0 1.879c.5871 0 1.0648.4776 1.0648 1.0647s-.4777 1.0648-1.0648 1.0648h-1.0021a.9395.9395 0 0 0 0 1.879c.5871 0 1.0648.4776 1.0648 1.0647 0 .5872-.4777 1.0648-1.0648 1.0648H24.9269v-9.0814a.9395.9395 0 0 0-1.879 0v10.0208a.0625.0625 0 0 1-.0625.0626h-6.0126a.0626.0626 0 0 1-.0626-.0626V24.9896c0-.0346.028-.0626.0626-.0626h6.0126c.0345 0 .0625.028.0625.0626v2.0042a.9395.9395 0 0 0 1.879 0v-2.0042c0-.0456-.0037-.0903-.0069-.135.7044-.5453 1.2677-1.0966 1.6352-1.4877.3477-.3705.7279-.6243 1.13-.7547 2.2113-.7179 3.6995-1.8738 4.5583-2.7171 1.0765-1.0569 1.719-2.1587 1.719-2.9475 0-.4167.1626-.8073.4578-1.0998.2988-.2962.6945-.4526 1.1222-.4532.5266.0049.8754.2743 1.0754.4996.3429.3861.5116.9413.452 1.485-.2052 1.8667-1.6981 4.1741-3.8032 5.8782a.9395.9395 0 0 0 .5911 1.6696h8.673c.8635 0 1.5658.7023 1.5658 1.5657 0 .8635-.7022 1.5658-1.5655 1.5658z" fill="#74AE06"/><path d="M19.9793 37.0674c-.5188 0-.9444.4256-.9444.9444s.4256.9444.9444.9444.9444-.4256.9444-.9444c.0002-.5187-.4255-.9444-.9444-.9444z" fill="#74AE06"/><path d="M58.3254 30l1.6139-4.2707a.9392.9392 0 0 0-.1456-.9196l-2.8546-3.5629.2152-4.5604a.9397.9397 0 0 0-.4226-.8295l-3.8159-2.5065-1.2044-4.4037a.9394.9394 0 0 0-.6583-.6582l-4.4036-1.2044-2.5066-3.8158a.9405.9405 0 0 0-.8294-.4226l-4.5604.2152L35.1902.2063a.9397.9397 0 0 0-.9196-.1456l-4.2707 1.6139L25.7295.0608a.939.939 0 0 0-.9196.1456L21.247 3.061l-4.5604-.2151a.9378.9378 0 0 0-.8295.4225l-2.5064 3.8159-4.4036 1.2045a.9393.9393 0 0 0-.6583.6582l-1.2044 4.4037-3.8159 2.5064a.9393.9393 0 0 0-.4226.8294l.2152 4.5604-2.8546 3.5629a.9397.9397 0 0 0-.1456.9196L1.6746 30 .0608 34.2705a.9392.9392 0 0 0 .1457.9196L3.061 38.753l-.2152 4.5604a.9397.9397 0 0 0 .4226.8295l3.8159 2.5065 1.2044 4.4037a.9394.9394 0 0 0 .6582.6582l4.4037 1.2044 2.5064 3.8159a.9426.9426 0 0 0 .8295.4226l4.5603-.2152 3.563 2.8546a.9391.9391 0 0 0 .9196.1457L30 58.3254l4.2707 1.6139a.9392.9392 0 0 0 .9195-.1457l3.5629-2.8546 4.5604.2152a.9405.9405 0 0 0 .8294-.4226l2.5066-3.8159 4.4036-1.2044a.9396.9396 0 0 0 .6583-.6582l1.2044-4.4037 3.8159-2.5065a.9396.9396 0 0 0 .4226-.8295l-.2152-4.5604 2.8546-3.5629a.9395.9395 0 0 0 .1456-.9196L58.3254 30zm-1.8831.3321l1.55 4.1014-2.7415 3.4218a.9389.9389 0 0 0-.2053.6316l.2067 4.3797-3.6646 2.4071a.9394.9394 0 0 0-.3904.5374l-1.1568 4.2292-4.2292 1.1568a.9396.9396 0 0 0-.5374.3904l-2.4072 3.6646-4.3796-.2067a.9396.9396 0 0 0-.6316.2053l-3.4218 2.7415-4.1014-1.5499A.9386.9386 0 0 0 30 56.3817a.9425.9425 0 0 0-.3321.0606l-4.1014 1.5499-3.4218-2.7415a.9406.9406 0 0 0-.6316-.2053l-4.3797.2067-2.4071-3.6646a.9394.9394 0 0 0-.5374-.3904l-4.2292-1.1568-1.1568-4.2292a.9404.9404 0 0 0-.3904-.5374l-3.6646-2.4071.2067-4.3797a.939.939 0 0 0-.2053-.6316l-2.7415-3.4218 1.55-4.1014a.9396.9396 0 0 0 0-.6642l-1.55-4.1015 2.7415-3.4218a.939.939 0 0 0 .2053-.6316l-.2067-4.3796 3.6646-2.4072a.9393.9393 0 0 0 .3904-.5374l1.1568-4.2292 4.2292-1.1568a.9404.9404 0 0 0 .5374-.3904l2.4071-3.6646 4.3797.2067a.94.94 0 0 0 .6316-.2053l3.4218-2.7415 4.1014 1.55a.94.94 0 0 0 .6643 0l4.1014-1.55 3.4218 2.7415a.9385.9385 0 0 0 .6316.2053l4.3796-.2067 2.4072 3.6646a.9393.9393 0 0 0 .5374.3904l4.2292 1.1568 1.1568 4.2292a.9396.9396 0 0 0 .3904.5374l3.6646 2.4072-.2067 4.3796a.9386.9386 0 0 0 .2053.6316l2.7415 3.4218-1.5501 4.1015a.9408.9408 0 0 0 .0001.6642z" fill="#74AE06"/><path d="M47.6525 13.7784a24.5896 24.5896 0 0 0-1.4734-1.4734c-.3822-.3508-.9765-.3255-1.3274.0568-.3509.3821-.3256.9765.0567 1.3273.2347.2157.4684.4395.6943.6654.2258.2259.4498.4596.6655.6945a.9371.9371 0 0 0 .6924.3041.9358.9358 0 0 0 .635-.2474c.3823-.3507.4077-.9451.0569-1.3273zM42.8429 9.7408c-4.5305-2.8864-9.9851-4.169-15.3585-3.6128-5.4521.5648-10.5931 3.0143-14.4763 6.8973-4.2734 4.2735-6.7616 9.9505-7.006 15.9853-.243 5.9993 1.744 11.824 5.5952 16.4009a.9373.9373 0 0 0 .7194.3346.9363.9363 0 0 0 .6044-.2206c.3969-.3341.448-.9267.114-1.3236-3.5486-4.2175-5.3795-9.5854-5.1557-15.1151.2253-5.562 2.5184-10.7941 6.4572-14.7328 3.5789-3.579 8.317-5.8367 13.3413-6.357 4.9541-.5134 9.981.669 14.1553 3.3284a.9394.9394 0 0 0 1.2971-.2875.9394.9394 0 0 0-.2874-1.2971zM50.2162 17.1145c-.2788-.4377-.8598-.5663-1.2971-.2875-.4377.2787-.5663.8595-.2875 1.297 2.6594 4.1744 3.8415 9.2016 3.3285 14.1553-.5205 5.0243-2.7781 9.7623-6.357 13.3414-3.9388 3.9387-9.171 6.232-14.7328 6.4572-5.5288.2248-10.8977-1.607-15.1151-5.1554-.3969-.3341-.9895-.283-1.3236.114-.3341.3969-.283.9895.114 1.3236 4.3267 3.6405 9.7677 5.6153 15.4179 5.6152.3268 0 .655-.0067.9831-.0199 6.0348-.2444 11.7117-2.7325 15.9853-7.006 3.8831-3.8831 6.3327-9.0242 6.8973-14.4764.5564-5.3737-.7267-10.8281-3.613-15.3585z" fill="#74AE06"/></svg>