<svg width="35" height="48" viewBox="0 0 35 48" fill="none" xmlns="http://www.w3.org/2000/svg"><path d="M7.981 48h10.3175c2.8791 0 5.5432-1.6719 6.9523-4.3791l8.9247-17.1406-.5037-.4125c-.0094-.0082-.0189-.0164-.0279-.0246a3.8332 3.8332 0 0 0-2.8812-1.0333 3.9193 3.9193 0 0 0-2.7652 1.463l-2.5744 3.134a.7369.7369 0 0 1-.8175.2257.7367.7367 0 0 1-.4889-.6932l-.0148-21.5613c-.0012-1.4695-1.0958-2.6649-2.4403-2.6649-1.315 0-2.3894 1.1398-2.4392 2.5625 0 2.1777-.0012 4.5481-.0016 6.8043-.0009 5.1028-.0017 9.507 0 9.9342a.731.731 0 0 1-.2143.5198.7335.7335 0 0 1-.5201.2134h-.0025a.731.731 0 0 1-.7368-.7278c-.0017-.4301-.0008-4.8319 0-9.9371 0-2.2023.0008-4.5148.0012-6.6497a.7123.7123 0 0 1-.002-.0506c0-.0419.0008-.0822.002-.1241V2.655C17.7491 1.1858 16.6542 0 15.3088 0h-.0749c-1.3454 0-2.4617 1.1764-2.4617 2.6468v21.5761a.7369.7369 0 0 1-1.4737 0V5.4363c0-1.4704-1.072-2.6666-2.4174-2.6666-1.3532 0-2.4247 1.1962-2.4247 2.6666v18.7866a.7372.7372 0 0 1-.7369.7368.737.737 0 0 1-.7368-.7368V13.1488c0-1.4708-1.1188-2.6225-2.4647-2.6225h-.0703c-1.342 0-2.437 1.1657-2.4403 2.6316-.014 6.0514-.0054 16.7204.0037 26.2706C.015 44.1604 3.5908 48 7.981 48z" fill="#fff"/></svg>