<svg width="42" height="42" viewBox="0 0 42 42" fill="none" xmlns="http://www.w3.org/2000/svg"><path d="M20.5781 16.8135H16.099c-1.9475 0-3.5704 1.6229-3.5704 3.5703v5.0634c1.558 1.2983 3.5703 2.0773 5.7775 2.0773 2.2071 0 4.2194-.779 5.8423-2.0773v-4.9985c0-2.0773-1.6229-3.6352-3.5703-3.6352zM18.306 15.7737c1.8285 0 3.3107-1.4823 3.3107-3.3107 0-1.8284-1.4822-3.3107-3.3107-3.3107-1.8284 0-3.3106 1.4823-3.3106 3.3107 0 1.8284 1.4822 3.3107 3.3106 3.3107z" fill="#94C83D"/><path d="M40.9614 35.9629l-7.4653-7.4652c1.9475-2.9212 3.116-6.4266 3.116-10.1917C36.6121 8.1793 28.4328 0 18.306 0 8.1793 0 0 8.1793 0 18.306c0 10.1268 8.1793 18.3061 18.306 18.3061 3.7651 0 7.2705-1.1685 10.1917-3.116l7.4652 7.4653C36.677 41.6754 37.5858 42 38.4946 42c.9088 0 1.8176-.3246 2.5317-1.0386 1.2983-1.4282 1.2983-3.6353-.0649-4.9985zM18.306 30.3153c-6.6213 0-12.0093-5.3879-12.0093-12.0093 0-6.6213 5.388-12.0093 12.0093-12.0093 6.6214 0 12.0093 5.388 12.0093 12.0093 0 6.6214-5.3879 12.0093-12.0093 12.0093z" fill="#5E9641"/></svg>