<svg width="42" height="42" viewBox="0 0 42 42" fill="none" xmlns="http://www.w3.org/2000/svg"><path d="M10.054 17.6869c1.1663-.1566 2.3325.2437 3.1594 1.0706l2.0888 2.0888 1.9757-1.967-2.8548-2.846c-.4438-.4439-.4438-1.1663 0-1.6102.4439-.4438 1.1663-.4438 1.6102 0l2.8547 2.8548 1.9757-1.967-2.0975-2.0975c-.8269-.8269-1.2272-2.0018-1.0706-3.1594.3482-2.6458-.4961-5.4135-2.524-7.4501C13.1002.5324 10.2629-.3031 7.5736.0973c-.4265.0609-.6006.5918-.296.8964L9.967 3.6831c1.2794 1.2794 1.2794 3.3508 0 4.6215L8.3133 9.9583c-1.2794 1.2794-3.3508 1.2794-4.6215 0L.9938 7.2689c-.3047-.3046-.8269-.1305-.8965.296-.4004 2.6893.4351 5.5266 2.5066 7.598 2.0366 2.0279 4.8043 2.8722 7.4501 2.524zM26.7821 21.2292l-1.9757 1.967 11.7322 11.7323c.4439.4438.4439 1.1662 0 1.6101-.4438.4439-1.1662.4439-1.6101 0L23.1963 24.8064l-1.9757 1.9669 12.0891 12.0891c1.5318 1.5318 4.0123 1.5231 5.5441-.0087 1.5318-1.5318 1.5318-4.0123.0087-5.5441L26.7821 21.2292z" fill="#5E9641"/><path d="M31.3165 13.3961h5.2134l5.2133-10.418L39.1409.3757 28.7142 5.5804v5.2134L14.545 24.9194l-2.5501-2.5414L1.7248 32.6481c-2.141 2.1411-2.141 5.605 0 7.7461 2.141 2.141 5.605 2.141 7.746 0L19.741 30.1241l-2.6023-2.6023 14.1779-14.1257z" fill="#94C83D"/></svg>