<svg width="40" height="48" viewBox="0 0 40 48" fill="none" xmlns="http://www.w3.org/2000/svg"><path d="M19.9742 26.2315c3.2091 0 10.754-3.862 10.754-13.1159 0-1.2908-.0314-2.5377-.1378-3.7158-.1747-2.3186-.6496-4.3735-1.832-5.9483C27.2418 1.3085 24.5883 0 19.9742 0c-4.6133 0-7.2666 1.308-8.7832 3.4503-1.1832 1.5752-1.6584 3.6306-1.8329 5.95-.1063 1.178-.1376 2.4248-.1376 3.7155-.0002 9.2537 7.5447 13.1157 10.7537 13.1157zM23.4844 4.805c-.3131.7916-.4701 1.1874-.7834 1.9789-2.0231-.5716-3.4307-.5716-5.4537 0-.3133-.7915-.4703-1.1873-.7837-1.979 2.5302-.7658 4.4911-.7657 7.0208 0zm-12.6643 6.3042c.124.271.6503 1.3129 1.4651 1.4105.9366.1124 2.4911-3.3168 7.689-3.3251 5.1978.0083 6.7525 3.4375 7.6891 3.3251.8147-.0977 1.3411-1.1395 1.4651-1.4105.0251.664.0344 1.3363.0344 2.0066 0 4.5232-1.9972 7.3259-3.6729 8.8805-2.1111 1.9589-4.4551 2.6699-5.5155 2.6699-1.0604 0-3.4045-.711-5.5156-2.6699-1.6757-1.5546-3.6729-4.3573-3.6729-8.8805-.0001-.6703.0091-1.3426.0342-2.0066z" fill="#5E9641"/><path d="M39.9392 39.6826c-.5491-3.4138-1.6792-7.8113-3.9464-9.374-1.5483-1.0676-6.9498-3.9534-9.2565-5.1857l-.039-.0208a.7539.7539 0 0 0-.8206.072c-1.2083.9486-2.5318 1.5878-3.9338 1.9a.7534.7534 0 0 0-.5409.4684l-1.4276 3.7632-1.4279-3.7632a.753.753 0 0 0-.5408-.4684c-1.4019-.3122-2.7254-.9514-3.9336-1.9a.754.754 0 0 0-.8208-.072c-2.2792 1.218-7.7469 4.1627-9.2885 5.202-2.61 1.758-3.751 8.1209-3.9533 9.3786a.7568.7568 0 0 0 .0337.3715c.0553.1562.9184 2.392 5.2351 4.1895a2.1456 2.1456 0 0 1 .9532-.6853c-.4631-.1644-.8651-.4867-1.1222-.9192-.3831-.6446-.3974-1.4535-.038-2.1094a6.3134 6.3134 0 0 1 5.534-3.2894c2.1466 0 4.0925 1.0666 5.248 2.8004h8.2373a6.319 6.319 0 0 1 .7765-.9456c1.1905-1.194 2.7744-1.8527 4.46-1.8551h.0026c2.306 0 4.4282 1.2536 5.5387 3.2725.36.6553.3479 1.4625-.0329 2.1093-.2557.4327-.6566.756-1.1192.9219.3793.1344.716.3758.9667.6949 4.3057-1.7967 5.1675-4.0283 5.2228-4.1842a.7589.7589 0 0 0 .0334-.3719z" fill="#5E9641"/><path d="M33.0082 45.2836h-.0005l-3.9687.0055c-.0704-.1671-.2056-.631-.2069-1.7379-.0018-1.107.1317-1.5717.2019-1.7392l3.9677-.0058a.2682.2682 0 0 0 .2345-.3974c-.7828-1.423-2.2766-2.3067-3.9066-2.3067-1.1884.0017-2.3047.4662-3.1436 1.3076a4.4316 4.4316 0 0 0-.9821 1.4932H14.7397c-.6569-1.6381-2.2602-2.8005-4.1344-2.8005-1.625.0023-3.1194.8911-3.8998 2.32a.2676.2676 0 0 0 .235.3961h.0003l3.9687-.0062c.0706.1671.2055.631.2068 1.7383.0019 1.1071-.1316 1.5716-.2019 1.7388l-3.9676.0059a.2691.2691 0 0 0-.2304.1317.2682.2682 0 0 0-.0039.2655c.7826 1.4229 2.2769 2.3074 3.8998 2.3074h.0066c1.1886-.0019 2.3046-.4664 3.1438-1.308a4.4319 4.4319 0 0 0 .9818-1.4935h10.464c.6571 1.6386 2.2591 2.8008 4.1287 2.8011h.0062c1.6248-.0023 3.1194-.8917 3.8998-2.3196a.268.268 0 0 0-.0046-.2654.268.268 0 0 0-.2304-.1309z" fill="#94C83D"/></svg>