<svg width="38" height="44" viewBox="0 0 38 44" fill="none" xmlns="http://www.w3.org/2000/svg"><path d="M18.7342 13.6174c-4.6228 0-8.3836 3.7608-8.3836 8.3833 0 4.6228 3.7608 8.3836 8.3836 8.3836 4.6225 0 8.3833-3.7608 8.3833-8.3836 0-4.6225-3.7608-8.3833-8.3833-8.3833zm4.9773 6.8045l-6.0059 6.0059a1.2877 1.2877 0 0 1-.9131.3784 1.2853 1.2853 0 0 1-.9127-.3784l-2.2951-2.2951c-.5043-.5039-.5043-1.3213 0-1.8255.5038-.5042 1.3212-.5042 1.8255 0l1.3823 1.3824 5.0935-5.0932c.5039-.5042 1.3213-.5042 1.8255 0 .5042.5039.5042 1.3213 0 1.8255z" fill="#94C83D"/><path d="M37.4247 11.9383l-.0014-.0342a46.2596 46.2596 0 0 1-.0396-1.3673c-.0359-2.426-1.9644-4.4328-4.3908-4.5684-5.0589-.2824-8.9724-1.932-12.3163-5.1912L20.6481.75c-1.0907-1-2.7359-1-3.8269 0l-.0285.0272C13.4488 4.0365 9.5353 5.6861 4.4764 5.9687 2.0504 6.104.1216 8.1107.0857 10.5371a45.3502 45.3502 0 0 1-.0396 1.367l-.002.0795c-.0984 5.1586-.2206 11.5788 1.9272 17.406 1.181 3.2046 2.9695 5.9901 5.3157 8.2799 2.672 2.6077 6.172 4.6779 10.4024 6.1529.1376.048.2807.087.4263.1162.2055.0409.4123.0614.6191.0614.2067 0 .4139-.0205.619-.0614a3.209 3.209 0 0 0 .428-.1169c4.2253-1.4777 7.7216-3.5489 10.3914-6.1562 2.3451-2.2905 4.1337-5.0767 5.3156-8.2819 2.1559-5.8447 2.034-12.277 1.936-17.4453zM18.734 32.9661c-6.0465 0-10.9654-4.9189-10.9654-10.9654 0-6.0465 4.9189-10.9654 10.9654-10.9654 6.0461 0 10.9654 4.9189 10.9654 10.9654 0 6.0465-4.9193 10.9654-10.9654 10.9654z" fill="#5E9641"/></svg>