<svg width="48" height="33" viewBox="0 0 48 33" fill="none" xmlns="http://www.w3.org/2000/svg"><path d="M4.6104 3.8233L.0647 13.5398c-.2221.4749.158 1.0106.6794.9579l17.0715-1.7249a.6754.6754 0 0 0 .5493-.3979L23.8578 0 5.1001 3.4453a.6755.6755 0 0 0-.4897.378zM23.8578 0l5.8123 12.7617a.6752.6752 0 0 0 .5604.3932l17.0392 1.3703c.5135.0412.8822-.4846.6684-.9533l-4.4438-9.7421a.6752.6752 0 0 0-.4947-.3843L23.8578 0z" fill="#94C83D"/><path d="M22.6708 7.137l-2.8411 6.8999a.6774.6774 0 0 1-.5671.4168l-14.5323 1.277a.6772.6772 0 0 0-.6178.6923l.2956 11.4072a.6776.6776 0 0 0 .5377.6453l17.1082 3.5986c.4183.088.8434.1315 1.2685.1306l.0003-3.3831V7.266c-.0002-.9417-.2935-.9997-.652-.129zM20.6814 28.41l-6.4224-1.0343v-3.3663h6.4224V28.41zm22.5884-12.6793l-14.5323-1.2769a.677.677 0 0 1-.567-.4169L25.3293 7.137c-.3585-.8707-.6519-.8127-.6519.129v21.5555l.0003 3.3831a6.094 6.094 0 0 0 1.2686-.1306l17.1082-3.5986a.6774.6774 0 0 0 .5376-.6453l.2956-11.4071a.6774.6774 0 0 0-.6179-.6923zm-5.9806 6.0931l-.8026.0221-.0162 5.0515c-.0007.2225-.2267.4353-.5078.4757l-1.3154.1892c-.3005.0432-.5464-.1108-.5458-.3445l.0122-5.306-.918.0254c-.4464.0124-.7288-.3455-.5016-.6418l2.1833-2.845c.2068-.2696.7144-.2448.9138.0393l1.9165 2.7314c.1816.259-.0481.5923-.4184.6027z" fill="#5E9641"/></svg>