<svg width="177" height="181" viewBox="0 0 177 181" fill="none" xmlns="http://www.w3.org/2000/svg"><path d="M65.3312 10.8996L22.4066 42.6779a70.775 70.775 0 0 0-8.5849 1.5254v45.9514c4.6144.9958 8.5849 1.4407 8.5849 1.4407L64.3868 122.42s7.705 6.356 7.705-.212V11.0267c.0215-5.1693-6.7606-.1271-6.7606-.1271zM0 53.4197v29.6599c0 2.3093 3.2837 4.0889 7.34 5.4236V46.1318C3.2838 47.7843 0 50.1359 0 53.4197zM117.828 35.2844a5.3295 5.3295 0 0 0-1.728-1.141 5.3807 5.3807 0 0 0-2.039-.4007c-.699 0-1.392.1361-2.038.4007a5.3188 5.3188 0 0 0-1.728 1.141 5.1838 5.1838 0 0 0-1.168 1.6968 5.133 5.133 0 0 0-.411 2.0107c0 .6905.14 1.3741.411 2.0107a5.1834 5.1834 0 0 0 1.168 1.6967c6.567 6.4976 10.255 15.3013 10.255 24.4798 0 9.1784-3.688 17.9821-10.255 24.4797a5.2373 5.2373 0 0 0-1.171 1.7075 5.1835 5.1835 0 0 0-.411 2.0211c0 .694.14 1.3811.411 2.0212.272.6401.67 1.2206 1.171 1.7075a5.2148 5.2148 0 0 0 1.728 1.1539c.65.266 1.346.399 2.049.393 1.41-.004 2.761-.561 3.756-1.5469 8.562-8.4715 13.371-19.9494 13.371-31.9158 0-11.9665-4.809-23.4444-13.371-31.9159z" fill="#B8D53D"/><path d="M109.007 67.2325a23.2164 23.2164 0 0 1-1.794 9.0724c-1.201 2.8769-2.97 5.4893-5.203 7.6854-.892.869-2.0946 1.3562-3.3478 1.3559a4.7873 4.7873 0 0 1-2.6291-.7927c-.7779-.5146-1.3841-1.245-1.7421-2.0991a4.6254 4.6254 0 0 1-.2699-2.7005 4.6637 4.6637 0 0 1 1.2929-2.3947c2.7104-2.6913 4.2317-6.3319 4.2317-10.1267 0-3.7949-1.5213-7.4355-4.2317-10.1268a4.5106 4.5106 0 0 1-1.0395-1.5003 4.4619 4.4619 0 0 1-.3555-1.7835 4.567 4.567 0 0 1 .3557-1.8027 4.6158 4.6158 0 0 1 1.0393-1.5234 4.7323 4.7323 0 0 1 1.5769-.974 4.7776 4.7776 0 0 1 1.8356-.2971 4.6871 4.6871 0 0 1 1.8045.356 4.6309 4.6309 0 0 1 1.522 1.021c2.218 2.1789 3.975 4.7712 5.169 7.6263a23.0602 23.0602 0 0 1 1.785 9.0045z" fill="#B8D53D"/><path d="M132.272 18.6956c-1.011-.9435-2.355-1.4605-3.746-1.4412-1.391.0193-2.72.5734-3.704 1.5446-.984.9711-1.545 2.2827-1.565 3.656-.019 1.3732.505 2.6999 1.46 3.6979 5.479 5.4045 9.825 11.8216 12.79 18.8847 2.965 7.063 4.491 14.6335 4.491 22.2789s-1.526 15.2159-4.491 22.2789c-2.965 7.0631-7.311 13.4806-12.79 18.8846-.994.988-1.553 2.325-1.553 3.718 0 1.393.559 2.73 1.553 3.718 1.009.976 2.365 1.524 3.778 1.526.7.003 1.394-.13 2.042-.392a5.3095 5.3095 0 0 0 1.735-1.134c13.055-12.895 20.389-30.3796 20.389-48.6101 0-18.2305-7.334-35.7151-20.389-48.6103z" fill="#BFBEBF"/><path d="M148.648 1.7266A5.338 5.338 0 0 0 146.92.5868a5.3908 5.3908 0 0 0-2.039-.4003c-1.413 0-2.768.554-3.767 1.5401-.998.986-1.56 2.3235-1.56 3.718 0 1.3946.562 2.732 1.56 3.7181 15.614 15.4254 24.384 36.3386 24.384 58.1438 0 21.8053-8.77 42.7185-24.384 58.1435-.498.489-.893 1.07-1.163 1.71-.27.64-.409 1.326-.409 2.019 0 .693.139 1.38.409 2.02.27.639.665 1.22 1.163 1.709.494.486 1.079.871 1.724 1.133s1.335.395 2.032.392c1.414.003 2.771-.546 3.778-1.525 17.62-17.398 27.518-40.9907 27.518-65.5909 0-24.6002-9.898-48.1932-27.518-65.5905z" fill="#BFBEBF"/><path d="M49.1436 164.203v8.552c0 1.359-.4366 2.437-1.3096 3.234-.8672.791-2.0244 1.187-3.4717 1.187-1.4648 0-2.6279-.39-3.4893-1.169-.8613-.785-1.2919-1.872-1.2919-3.261v-8.543h2.2148v8.561c0 .855.2168 1.508.6504 1.96.4336.451 1.0723.676 1.916.676 1.7109 0 2.5664-.902 2.5664-2.707v-8.49h2.2149zM53.5908 177h-2.1357v-13.5h2.1357V177zm5.0098-11.821v2.311h1.6787v1.582h-1.6787v5.309c0 .363.0703.627.2109.791.1465.158.4043.237.7735.237.2461 0 .4951-.029.747-.088v1.653c-.4863.134-.955.202-1.4062.202-1.6406 0-2.461-.905-2.461-2.716v-5.388h-1.5644v-1.582h1.5644v-2.311h2.1358zm8.2969 4.262a5.3833 5.3833 0 0 0-.8702-.07c-.9785 0-1.6377.375-1.9775 1.125V177h-2.1357v-9.51h2.039l.0528 1.064c.5156-.826 1.2304-1.24 2.1445-1.24.3047 0 .5566.041.7558.124l-.0087 2.003zM73.665 177c-.0937-.182-.1757-.478-.2461-.888-.6796.709-1.5117 1.064-2.496 1.064-.9551 0-1.7344-.273-2.3379-.818-.6036-.545-.9053-1.218-.9053-2.021 0-1.014.375-1.79 1.125-2.329.7558-.545 1.834-.818 3.2344-.818h1.3095v-.624c0-.492-.1377-.884-.4131-1.177-.2753-.299-.6943-.449-1.2568-.449-.4863 0-.8848.123-1.1953.37-.3105.24-.4658.547-.4658.922h-2.1358c0-.521.1729-1.007.5186-1.459.3457-.457.8144-.814 1.4062-1.072.5977-.258 1.2627-.387 1.9952-.387 1.1132 0 2.0009.282 2.663.844.6622.557 1.002 1.342 1.0196 2.356v4.289c0 .855.1201 1.538.3603 2.048V177H73.665zm-2.3466-1.538c.4218 0 .8173-.103 1.1865-.308.375-.205.6562-.48.8437-.826v-1.793h-1.1513c-.7911 0-1.3858.138-1.7842.413-.3985.276-.5977.665-.5977 1.169 0 .41.1348.738.4043.985.2754.24.6416.36 1.0987.36zm10.5468-3.041H77.251v-1.723h4.6142v1.723zm8.6573 1.283c0-.562-.1993-.996-.5977-1.301-.3926-.304-1.1045-.612-2.1357-.923-1.0313-.31-1.8516-.656-2.461-1.037-1.166-.732-1.749-1.687-1.749-2.865 0-1.031.4189-1.881 1.2568-2.549.8438-.668 1.9366-1.002 3.2784-1.002.8906 0 1.6845.164 2.3818.493.6973.328 1.2451.796 1.6435 1.406.3985.603.5977 1.274.5977 2.012h-2.2148c0-.667-.211-1.189-.6329-1.564-.416-.381-1.0136-.571-1.7929-.571-.7266 0-1.292.155-1.6963.466-.3984.31-.5977.744-.5977 1.3 0 .469.2168.862.6504 1.178.4336.311 1.1485.615 2.1446.914.9961.293 1.7959.63 2.3994 1.011.6035.375 1.0459.808 1.3271 1.301.2813.486.4219 1.057.4219 1.714 0 1.066-.4102 1.916-1.2305 2.548-.8144.627-1.9218.941-3.3222.941-.9258 0-1.7784-.17-2.5577-.51-.7734-.346-1.3769-.82-1.8105-1.424-.4277-.603-.6416-1.306-.6416-2.109h2.2236c0 .726.2403 1.289.7207 1.687.4805.399 1.169.598 2.0655.598.7734 0 1.3535-.155 1.7402-.466.3926-.316.5889-.732.5889-1.248zM96.7627 177H94.627v-9.51h2.1357V177zm-2.2676-11.979c0-.329.1026-.601.3076-.818.211-.217.5098-.325.8965-.325.3867 0 .6856.108.8965.325.2109.217.3164.489.3164.818 0 .322-.1055.591-.3164.808-.2109.211-.5098.317-.8965.317-.3867 0-.6855-.106-.8965-.317-.205-.217-.3076-.486-.3076-.808zM101.368 177h-2.1356v-13.5h2.1356V177zm6.522.176c-1.354 0-2.452-.425-3.296-1.275-.838-.855-1.257-1.992-1.257-3.41v-.263c0-.95.182-1.796.545-2.54.369-.75.885-1.334 1.547-1.75.662-.416 1.4-.624 2.215-.624 1.294 0 2.294.414 2.997 1.24.709.826 1.063 1.995 1.063 3.507v.861h-6.214c.065.785.325 1.406.782 1.863.463.457 1.043.686 1.741.686.978 0 1.775-.396 2.39-1.187l1.152 1.099c-.381.568-.891 1.011-1.53 1.327-.632.311-1.344.466-2.135.466zm-.255-8.148c-.586 0-1.061.205-1.424.616-.357.41-.586.981-.686 1.713h4.07v-.158c-.047-.715-.238-1.254-.572-1.617-.334-.369-.796-.554-1.388-.554zm7.717-1.538l.061 1.099c.703-.85 1.626-1.275 2.769-1.275 1.98 0 2.988 1.134 3.023 3.402V177h-2.136v-6.161c0-.604-.131-1.049-.395-1.336-.258-.293-.683-.44-1.275-.44-.861 0-1.503.39-1.924 1.169V177h-2.136v-9.51h2.013zm11.944 7.981c.533 0 .975-.156 1.327-.466.352-.311.539-.694.563-1.151h2.012c-.023.591-.208 1.145-.553 1.661-.346.509-.815.914-1.407 1.213-.592.298-1.23.448-1.916.448-1.33 0-2.384-.431-3.164-1.292-.779-.862-1.169-2.051-1.169-3.569v-.219c0-1.448.387-2.605 1.16-3.472.774-.873 1.829-1.31 3.164-1.31 1.131 0 2.051.332 2.76.994.715.656 1.09 1.52 1.125 2.592h-2.012c-.024-.545-.211-.993-.563-1.344-.346-.352-.788-.528-1.327-.528-.692 0-1.225.252-1.6.756-.375.498-.565 1.257-.571 2.277v.342c0 1.032.185 1.802.554 2.312.375.504.914.756 1.617.756zm9.703 1.705c-1.353 0-2.452-.425-3.296-1.275-.838-.855-1.257-1.992-1.257-3.41v-.263c0-.95.182-1.796.545-2.54.369-.75.885-1.334 1.547-1.75.662-.416 1.4-.624 2.215-.624 1.295 0 2.294.414 2.997 1.24.709.826 1.063 1.995 1.063 3.507v.861H134.6c.064.785.325 1.406.782 1.863.463.457 1.043.686 1.74.686.979 0 1.775-.396 2.391-1.187l1.151 1.099c-.381.568-.891 1.011-1.529 1.327-.633.311-1.345.466-2.136.466zm-.255-8.148c-.586 0-1.06.205-1.424.616-.357.41-.586.981-.685 1.713h4.069v-.158c-.047-.715-.237-1.254-.571-1.617-.334-.369-.797-.554-1.389-.554z" fill="#B8D53D"/></svg>