<svg width="42" height="44" viewBox="0 0 42 44" fill="none" xmlns="http://www.w3.org/2000/svg"><path fill-rule="evenodd" clip-rule="evenodd" d="M20.9143 0C12.066 0 4.8667 7.0748 4.8667 15.7709s7.1994 15.7709 16.0476 15.7709c8.8482 0 16.0476-7.0748 16.0476-15.7709S29.7626 0 20.9143 0zm7.8083 14.6121l-2.8456 2.7261.6725 3.8504c.2056 1.1755-1.0548 2.0587-2.1171 1.5112l-3.518-1.8174-3.5181 1.8173c-1.0684.5514-2.3215-.3422-2.1171-1.5112l.6725-3.8504-2.8456-2.7261c-.8648-.8286-.3848-2.275.8084-2.4454l3.9331-.5614 1.759-3.5022c.5323-1.0636 2.0829-1.0645 2.6158 0l1.759 3.5022 3.933.5614c1.1931.1703 1.673 1.6168.8082 2.4455zm12.9655 22.5017l-5.1344-10.8206c-2.8351 4.0568-7.2616 6.9456-12.3856 7.8216l4.2981 9.0579c.5495 1.159 2.2501 1.0817 2.6927-.1153l2.203-5.9472.454-.2081 6.0516 2.1651c1.2144.4379 2.3694-.7989 1.8206-1.9534zm-41.5474 0l5.1344-10.8206c2.8352 4.0569 7.2617 6.9456 12.3857 7.8215l-4.2981 9.0579c-.5507 1.1614-2.251 1.0791-2.6927-.1154l-2.203-5.9473-.454-.208-6.0516 2.165c-1.2066.4368-2.372-.7932-1.8207-1.9531z" fill="#fff"/></svg>