<svg xmlns="http://www.w3.org/2000/svg" width="735.5483" height="238.6277" viewBox="0 0 735.5483 238.6277"><path d="M318.8671 234.6503H258.848l37.5113-230.531h60.0254l-37.5175 230.531zM208.3561 4.1193l-57.2197 158.561-6.7708-34.1443.0061.0123-20.1955-103.6724s-2.442-20.7567-28.471-20.7567H1.11L0 8.0227s28.9274 6.0186 62.7818 26.3497l52.1445 200.284h62.5352L272.9508 4.1192H208.356zm472.0816 230.531h55.1106L687.4984 4.113h-48.2472c-22.2798 0-27.7064 17.18-27.7064 17.18l-89.514 213.3572h62.566l12.512-34.243h76.299l7.0299 34.243zm-66.044-81.5467l31.5359-86.2703 17.7412 86.2703h-49.277zm-87.67-93.5469l8.5653-49.5052S508.859 0 481.3069 0c-29.7846 0-100.515 13.0176-100.515 76.3174 0 59.5568 83.0143 60.2968 83.0143 91.5798s-74.4614 25.6776-99.0351 5.9507l-8.923 51.7622s26.7999 13.0176 67.7459 13.0176c40.9583 0 102.7474-21.2069 102.7474-78.926 0-59.939-83.7605-65.5197-83.7605-91.5797.0061-26.066 58.459-22.7176 84.1429-8.5653h-.0002z" fill="#2566af"/><path d="M144.3717 128.5421L124.1762 24.8698S121.7342 4.113 95.7052 4.113H1.11L0 8.0165s45.4661 9.4225 89.076 44.7261c41.6984 33.7435 55.2957 75.7995 55.2957 75.7995z" fill="#e6a540"/></svg>