<svg xmlns="http://www.w3.org/2000/svg" width="525.2863" height="100" viewBox="0 0 525.2863 100"><path d="M25.2993 52.8782L10.672 85.7312H0l16.0681-35.1327c-7.5556-3.8369-12.5914-10.7903-12.5914-23.62C3.4767 8.9928 14.8674 0 28.4176 0H42.206v85.7312h-9.233v-32.853h-7.6738zM32.973 7.7939h-4.9158c-7.4336 0-14.6272 4.9158-14.6272 19.1846 0 13.7885 6.5932 18.2258 14.6272 18.2258h4.9158V7.794z" fill="red"/><path d="M86.7029 25.2993v60.4319h-9.233V58.6344H63.5613v27.0968h-9.353v-60.432h9.353V50.957h13.9086V25.2993h9.233zm48.0806 72.3029h-8.3925v-11.871h-25.8996v11.871h-8.3925V78.0573h3.7169c5.5143-12.8316 6.1147-31.534 6.1147-47.6021v-5.156h28.0573v52.7581h4.7957v19.5449zM120.7548 32.853H110.323v1.0807c0 12.7097-.5985 31.292-5.6344 44.1236h16.0663V32.853zM160.5631 86.57c-12.4695 0-20.1434-9.9498-20.1434-28.534 0-19.4266 5.396-33.5753 18.2258-33.5753 10.0717 0 16.6667 7.5537 16.6667 28.0555v5.1577h-25.181c0 13.6703 3.8369 20.8639 11.2706 20.8639 5.276 0 9.473-2.3979 11.871-4.0753l2.1595 7.1899c-3.837 3-8.8746 4.9176-14.8692 4.9176zM150.2512 50h15.4678c0-10.3118-1.6793-17.8656-7.0735-17.8656-5.7563 0-7.7939 7.0735-8.3943 17.8656zm44.0054 5.6344v30.0968h-9.353v-60.432h9.353v27.9373l14.5072-27.9372h9.4731l-14.9874 28.4175 17.145 32.0144h-10.1917l-15.9462-30.0968zm27.337-.1183c0-18.9462 7.3154-31.0555 21.4641-31.0555 5.3942 0 8.5125 1.439 11.1505 3.1164l-1.319 8.8746c-2.5179-2.1595-6.1146-4.1971-9.9516-4.1971-6.715 0-11.5107 7.5537-11.5107 22.7813 0 15.1076 3.5968 23.742 11.1505 23.742 4.5555 0 8.034-1.7993 10.1918-3.7168l2.1577 6.9533c-3.2366 2.7563-7.0735 4.5556-12.5896 4.5556-12.9499 0-20.7438-10.43-20.7438-31.0538zM318.527 85.7312h-36.69L280.9965 100h-4.6757V80.8173h2.518c4.1971-3.4804 6.2347-13.0718 7.4336-25.3012 1.199-12.7096 1.5592-31.656 1.9194-55.5161h29.975v80.8173h5.8781V100h-4.6793l-.8387-14.2688zm-6.355-80.8154H293.588c-.3602 21.7025-.9606 38.249-1.9194 50.6003-1.0788 12.828-2.9982 21.3405-6.2348 25.3012h26.7384V4.9158zM348.8731 82.0143c8.0322 0 12.2294-6.473 12.2294-6.473l1.7993 4.5518s-4.5555 6.8352-14.147 6.8352c-12.8278 0-18.706-11.6309-18.706-31.4122 0-19.785 7.4337-31.4158 17.6273-31.4158 10.43 0 17.1432 10.9123 15.2257 32.3765h-27.3369c.2402 16.5447 4.5556 25.5375 13.3082 25.5375zm-13.19-29.9785h21.9464c.957-16.0645-3.8388-23.258-9.9534-23.258-6.3549 0-11.5126 8.1523-11.993 23.258zM399.8411 56.595h-20.6236v29.1362h-5.6344v-60.432h5.6344v26.7366h20.6236V25.2993h5.6344v60.4319h-5.6344V56.595zM418.7985 25.2993h5.6307v22.423h4.441c11.5089 0 18.9425 6.2347 18.9425 18.8261 0 12.828-7.914 19.1828-19.3046 19.1828h-9.7096v-60.432zm5.6307 26.8584v29.1362h3.5986c8.5125 0 14.2688-4.1935 14.2688-14.6272 0-10.19-5.0358-14.509-13.6703-14.509h-4.1971zM463.0459 29.9767v55.7545h-5.5125v-60.432h25.5376v4.6775H463.046zM519.892 43.6452c0-3.1183.2366-5.7563.4804-8.2743h-.362c-.8388 2.638-1.9176 5.156-3.2366 7.794l-19.663 42.5663h-4.7957v-60.432h5.276v41.966c0 3.2365-.2439 5.8745-.4803 8.5125h.3583c.8387-2.7562 2.0358-5.3942 3.2366-8.0322l19.6667-42.4462h4.914v60.4319h-5.3943v-42.086z"/></svg>