<svg width="36" height="25" viewBox="0 0 36 25" fill="none" xmlns="http://www.w3.org/2000/svg"><path d="M3.4578 2.8675L.0485 10.1549c-.1666.3561.1185.7579.5096.7184l12.8036-1.2937a.5063.5063 0 0 0 .4119-.2984L17.8933 0 3.8251 2.584a.5066.5066 0 0 0-.3673.2835zM17.8933 0l4.3593 9.5713a.5064.5064 0 0 0 .4203.2949l12.7794 1.0277c.3851.0309.6616-.3634.5013-.715l-3.3328-7.3066a.5067.5067 0 0 0-.3711-.2882L17.8933 0z" fill="#94C83D"/><path d="M17.0031 5.3528l-2.1308 5.175a.5082.5082 0 0 1-.4253.3126l-10.8992.9578a.5079.5079 0 0 0-.4634.5192l.2216 8.5554a.5083.5083 0 0 0 .4034.484l12.8311 2.6989c.3137.066.6325.0986.9514.0979l.0002-2.5373V5.4496c-.0001-.7062-.2201-.7498-.489-.0968zM15.511 21.3076l-4.8168-.7757v-2.5247h4.8168v3.3004zm16.9413-9.5094l-10.8991-.9577a.5077.5077 0 0 1-.4253-.3127l-2.1309-5.175c-.2689-.653-.489-.6094-.489.0968v16.1666l.0003 2.5374c.3187.0007.6376-.032.9514-.098l12.8312-2.6989a.508.508 0 0 0 .4032-.484l.2216-8.5553a.5079.5079 0 0 0-.4634-.5192zm-4.4854 4.5697l-.6019.0167-.0122 3.7886c-.0005.1669-.1701.3264-.3809.3567l-.9865.1419c-.2254.0324-.4098-.083-.4094-.2583l.0092-3.9795-.6885.0191c-.3348.0092-.5466-.2592-.3762-.4814l1.6375-2.1338c.1551-.2022.5358-.1836.6853.0295l1.4374 2.0485c.1362.1943-.0361.4443-.3138.452z" fill="#5E9641"/></svg>