<svg width="36" height="36" viewBox="0 0 36 36" fill="none" xmlns="http://www.w3.org/2000/svg"><g clip-path="url(#clip0)"><path d="M13.2723 34.7399l4.6356-13.208-12.1778-.0367c-.5151 0-.9198-.4048-.9198-.9198 0-.2208.0736-.4047.2207-.5887L15.7373 6.8523c1.7659-2.1339 3.5319-4.3046 5.3347-6.512.3311-.4047.883-.4415 1.2877-.1472.2943.2575.4047.6622.2943 1.0301l-4.6725 13.2449 12.1779.0367c.515 0 .9197.4047.9197.9198a.9036.9036 0 0 1-.1839.5519c-3.4216 4.4149-7.0271 8.7563-10.6326 13.1344-1.766 2.1339-3.532 4.2678-5.4083 6.5488-.3311.4047-.883.4415-1.2877.1472-.3311-.2943-.4415-.699-.2943-1.067z" fill="#94C83D"/><path d="M10.9913 30.6191c.4415.2575.6254.8094.3679 1.2509-.2575.4415-.8094.6254-1.2509.3679-2.649-1.4349-4.8196-3.5319-6.328-6.0705-1.4717-2.5018-2.3179-5.3715-2.3179-8.4252 0-3.8263 1.3245-7.395 3.5687-10.228 2.2443-2.8328 5.4451-4.93 9.161-5.813.4783-.1103.9934.184 1.1038.6991.1103.4783-.184.9934-.6991 1.1037-3.3112.7727-6.144 2.649-8.1308 5.1508-1.9867 2.5018-3.164 5.7026-3.164 9.0874 0 2.6858.7358 5.2611 2.0603 7.5054 1.3612 2.2442 3.2744 4.1206 5.629 5.3715zM25.1191 4.9387c-.4415-.2576-.6254-.8094-.3679-1.251.2575-.4414.8094-.6254 1.2509-.3678 2.6489 1.4348 4.7828 3.5687 6.2545 6.0337 1.4716 2.5018 2.281 5.3715 2.281 8.3884 0 3.863-1.3612 7.4686-3.6423 10.3015-2.281 2.8329-5.5187 4.93-9.2714 5.7762-.4782.1104-.9933-.2208-1.1037-.699-.1104-.4783.2208-.9934.699-1.1038 3.348-.7358 6.2177-2.6121 8.2413-5.1139 2.0235-2.5386 3.2376-5.7395 3.2376-9.161 0-2.6858-.7359-5.2244-2.0235-7.4318-1.3245-2.2075-3.2009-4.0838-5.5555-5.3715z" fill="#5E9641"/></g><defs><clipPath id="clip0"><path fill="#fff" d="M0 0h36v36H0z"/></clipPath></defs></svg>