<svg width="20" height="20" viewBox="0 0 20 20" fill="none" xmlns="http://www.w3.org/2000/svg"><path d="M9.465 15.5598c-.16 0-.32-.06-.44-.16-.2-.16-.3-.42-.24-.68l.98-5-.54.3c-.34.18-.76.08-.96-.26-.18-.34-.08-.76.26-.96l1.86-1.06c.24-.14.54-.12.76.04.22.16.32.44.28.7l-1.02 5.18.84-.36c.36-.16.76 0 .92.36.16.36 0 .76-.36.92l-2.06.9c-.08.06-.18.08-.28.08zm1.98-9.56c.18-.18.3-.44.3-.7 0-.26-.1-.52-.3-.7-.18-.18-.44-.3-.7-.3-.26 0-.52.1-.7.3-.18.18-.3.44-.3.7 0 .26.1.52.3.7.18.18.44.3.7.3.26 0 .52-.1.7-.3zm7.76 4c0-5.08-4.12-9.2-9.2-9.2-5.08 0-9.2 4.12-9.2 9.2 0 5.08 4.12 9.2 9.2 9.2 5.08 0 9.2-4.12 9.2-9.2zm-1.6 0c0 4.2-3.4 7.6-7.6 7.6-4.2 0-7.6-3.4-7.6-7.6 0-4.2 3.4-7.6 7.6-7.6 4.2 0 7.6 3.4 7.6 7.6z" fill="#71AB04"/></svg>