<svg width="30" height="36" viewBox="0 0 30 36" fill="none" xmlns="http://www.w3.org/2000/svg"><path d="M14.9808 19.6737c2.4068 0 8.0654-2.8965 8.0654-9.837 0-.968-.0235-1.9032-.1033-2.7868-.131-1.739-.4872-3.2801-1.374-4.4612C20.4314.9814 18.4414 0 14.9808 0c-3.46 0-5.45.981-6.5875 2.5878-.8874 1.1814-1.2438 2.7229-1.3746 4.4625-.0797.8835-.1033 1.8186-.1033 2.7866 0 6.9403 5.6586 9.8368 8.0654 9.8368zm2.6326-16.07c-.2348.5937-.3525.8906-.5876 1.4842-1.5173-.4287-2.573-.4287-4.0903 0-.2349-.5936-.3526-.8905-.5877-1.4842 1.8976-.5744 3.3683-.5743 5.2656 0zM8.1152 8.332c.093.2033.4877.9847 1.0988 1.058.7024.0842 1.8683-2.4877 5.7668-2.494 3.8983.0063 5.0643 2.5782 5.7668 2.494.611-.0734 1.0058-.8548 1.0988-1.058.0188.498.0258 1.0023.0258 1.505 0 3.3924-1.4979 5.4944-2.7547 6.6604-1.5833 1.4692-3.3413 2.0024-4.1366 2.0024-.7953 0-2.5534-.5332-4.1367-2.0024-1.2568-1.166-2.7547-3.268-2.7547-6.6604 0-.5028.0068-1.007.0257-1.505z" fill="#5E9641"/><path d="M29.9545 29.7623c-.4118-2.5603-1.2594-5.8585-2.9598-7.0305-1.1612-.8007-5.2124-2.9651-6.9424-3.8893l-.0292-.0155a.5654.5654 0 0 0-.6155.0539c-.9062.7115-1.8989 1.1909-2.9504 1.4251a.5651.5651 0 0 0-.4056.3512l-1.0708 2.8224-1.0708-2.8224a.565.565 0 0 0-.4057-.3512c-1.0514-.2342-2.044-.7136-2.9502-1.4251a.5655.5655 0 0 0-.6156-.0539c-1.7094.9134-5.8101 3.122-6.9664 3.9014-1.9575 1.3186-2.8132 6.0908-2.965 7.034a.568.568 0 0 0 .0253.2787c.0415.1171.6888 1.7939 3.9264 3.1421a1.609 1.609 0 0 1 .7149-.514 1.604 1.604 0 0 1-.8417-.6894c-.2874-.4835-.298-1.0901-.0286-1.5821a4.7352 4.7352 0 0 1 4.1506-2.467c1.61 0 3.0694.8 3.936 2.1003h6.178a4.7367 4.7367 0 0 1 .5824-.7092c.8929-.8955 2.0808-1.3895 3.345-1.3913h.002c1.7295 0 3.3211.9402 4.154 2.4544.27.4914.2609 1.0969-.0247 1.5819a1.6054 1.6054 0 0 1-.8394.6915c.2845.1007.537.2818.725.5211 3.2293-1.3475 3.8757-3.0212 3.9172-3.1381a.5694.5694 0 0 0 .025-.279z" fill="#5E9641"/><path d="M24.7563 33.9629h-.0004l-2.9766.0041c-.0527-.1253-.1541-.4733-.1551-1.3035-.0014-.8302.0988-1.1788.1514-1.3044l2.9758-.0044a.201.201 0 0 0 .1759-.2979 3.34 3.34 0 0 0-2.93-1.7301c-.8913.0013-1.7285.3496-2.3577.9807a3.3244 3.3244 0 0 0-.7365 1.1199h-7.8482c-.4928-1.2286-1.6952-2.1003-3.1009-2.1003a3.3381 3.3381 0 0 0-2.9248 1.7399.2009.2009 0 0 0 .1763.2971h.0002l2.9765-.0047c.053.1253.1541.4733.1551 1.3037.0014.8304-.0987 1.1787-.1514 1.3042l-2.9758.0044a.201.201 0 0 0-.1757.2979A3.3385 3.3385 0 0 0 7.9595 36h.0048c.8915-.0014 1.7285-.3497 2.3579-.9809a3.3258 3.3258 0 0 0 .7364-1.1202h7.848c.4928 1.229 1.6943 2.1006 3.0965 2.1008h.0047c1.2186-.0017 2.3395-.6687 2.9249-1.7396a.2012.2012 0 0 0-.0035-.1991.201.201 0 0 0-.1728-.0981z" fill="#94C83D"/></svg>