<svg width="26" height="26" fill="none" xmlns="http://www.w3.org/2000/svg"><path d="M13.007.733C6.233.733.74 6.227.74 13s5.493 12.267 12.267 12.267c6.773 0 12.266-5.494 12.266-12.267S19.78.733 13.007.733zm0 22.4C7.407 23.133 2.873 18.6 2.873 13c0-5.6 4.534-10.133 10.134-10.133C18.607 2.867 23.14 7.4 23.14 13c0 5.6-4.533 10.133-10.133 10.133zm4.08-7.573a1.063 1.063 0 0 1 0 1.52c-.214.213-.48.32-.747.32s-.533-.107-.747-.32l-3.306-3.307a1.053 1.053 0 0 1-.32-.746V6.68c0-.587.48-1.067 1.066-1.067.587 0 1.067.48 1.067 1.067v5.92l2.987 2.96z" fill="#94D212"/></svg>