<svg width="24" height="24" fill="none" xmlns="http://www.w3.org/2000/svg"><path fill-rule="evenodd" clip-rule="evenodd" d="M11.978 0C5.518 0 .282 5.373.282 12s5.236 12 11.696 12 11.697-5.373 11.697-12S18.438 0 11.978 0zM9.407 5.639c.665-.031.878-.039 2.572-.039h-.002c1.695 0 1.907.008 2.572.039.664.031 1.118.139 1.515.297.411.163.758.382 1.105.738s.56.713.72 1.134c.154.407.259.872.29 1.553.03.683.038.901.038 2.64 0 1.737-.008 1.955-.038 2.638-.031.68-.136 1.146-.29 1.553-.16.42-.373.778-.72 1.134a3.044 3.044 0 0 1-1.104.738c-.397.159-.85.266-1.515.298-.666.03-.878.038-2.572.038s-1.906-.007-2.572-.038c-.664-.032-1.117-.14-1.514-.298a3.047 3.047 0 0 1-1.105-.738 3.147 3.147 0 0 1-.72-1.134c-.154-.407-.259-.872-.29-1.553-.03-.683-.037-.9-.037-2.639 0-1.738.008-1.956.038-2.639.03-.681.135-1.146.29-1.553.16-.421.373-.778.72-1.134a3.048 3.048 0 0 1 1.105-.738c.396-.158.85-.266 1.514-.297z" fill="#94D212"/><path fill-rule="evenodd" clip-rule="evenodd" d="M11.42 6.754H11.978c1.666 0 1.863.006 2.52.036.609.029.939.133 1.159.22.291.117.499.255.717.48.218.223.353.437.467.735.085.226.187.564.215 1.188.03.675.036.878.036 2.586 0 1.708-.007 1.91-.037 2.585-.027.624-.129.963-.214 1.188a1.985 1.985 0 0 1-.467.735 1.925 1.925 0 0 1-.717.48c-.22.087-.55.191-1.158.22-.658.03-.855.037-2.521.037s-1.863-.007-2.52-.037c-.61-.03-.94-.134-1.16-.221a1.928 1.928 0 0 1-.717-.479 1.99 1.99 0 0 1-.467-.735c-.085-.226-.187-.564-.214-1.188-.03-.675-.036-.878-.036-2.587s.006-1.91.036-2.585c.027-.624.13-.963.214-1.188.114-.3.249-.512.467-.736.219-.224.427-.363.718-.48.22-.087.55-.191 1.158-.22.576-.027.799-.035 1.961-.036v.002zm3.889 1.062a.758.758 0 0 0-.749.768c0 .424.336.768.749.768a.759.759 0 0 0 .749-.768.759.759 0 0 0-.75-.768zM8.775 12c0-1.815 1.435-3.286 3.204-3.286 1.769 0 3.203 1.471 3.203 3.286s-1.434 3.286-3.203 3.286c-1.77 0-3.204-1.47-3.204-3.286z" fill="#94D212"/><path fill-rule="evenodd" clip-rule="evenodd" d="M11.979 9.867c1.148 0 2.08.955 2.08 2.133 0 1.179-.932 2.134-2.08 2.134-1.148 0-2.08-.955-2.08-2.133 0-1.179.932-2.134 2.08-2.134z" fill="#94D212"/></svg>