<svg width="20" height="20" fill="none" xmlns="http://www.w3.org/2000/svg"><path d="M13.754 3.65c-.95-.85-2.283-1.317-3.733-1.317-1.45 0-2.784.467-3.734 1.317-1.15 1.033-1.766 2.583-1.766 4.5 0 4.183 4.817 9.1 5.033 9.3.134.133.3.2.467.2a.63.63 0 0 0 .466-.2c.2-.2 5.034-5.117 5.034-9.3-.017-1.917-.617-3.467-1.767-4.5zm-3.75 12.367c-.45-.5-1.166-1.334-1.866-2.334-1.5-2.133-2.3-4.033-2.3-5.516 0-4.167 3.183-4.5 4.166-4.5 3.867 0 4.167 3.45 4.167 4.5 0 2.933-2.983 6.55-4.167 7.85zm0-10.8c-1.466 0-2.65 1.216-2.65 2.7 0 1.483 1.184 2.7 2.65 2.7 1.467 0 2.65-1.217 2.65-2.7 0-1.5-1.183-2.7-2.65-2.7zm0 4.216c-.816 0-1.483-.683-1.483-1.533 0-.85.667-1.533 1.483-1.533.817 0 1.484.683 1.484 1.533 0 .85-.667 1.533-1.484 1.533z" fill="#B6F03E"/></svg>