<svg width="20" height="28" fill="none" xmlns="http://www.w3.org/2000/svg"><path d="M16.758 2.57C15.047 1.04 12.648.2 10.038.2c-2.61 0-5.01.84-6.72 2.37-2.07 1.86-3.18 4.65-3.18 8.1 0 7.53 8.67 16.38 9.06 16.74.24.24.54.36.84.36.3 0 .63-.12.84-.36.36-.36 9.06-9.21 9.06-16.74-.03-3.45-1.11-6.24-3.18-8.1zm-6.75 22.26c-.81-.9-2.1-2.4-3.36-4.2-2.7-3.84-4.14-7.26-4.14-9.93 0-7.5 5.73-8.1 7.5-8.1 6.96 0 7.5 6.21 7.5 8.1 0 5.28-5.37 11.79-7.5 14.13zm0-19.44c-2.64 0-4.77 2.19-4.77 4.86 0 2.67 2.13 4.86 4.77 4.86 2.64 0 4.77-2.19 4.77-4.86 0-2.7-2.13-4.86-4.77-4.86zm0 7.59c-1.47 0-2.67-1.23-2.67-2.76 0-1.53 1.2-2.76 2.67-2.76s2.67 1.23 2.67 2.76c0 1.53-1.2 2.76-2.67 2.76z" fill="#94D212"/></svg>