<svg width="20" height="24" fill="none" xmlns="http://www.w3.org/2000/svg"><path d="M17.6 7.36v-.08-.06c0-.02-.017-.04-.017-.08 0-.02-.016-.06-.016-.08 0-.02-.017-.04-.034-.06-.016-.02-.016-.06-.033-.08V6.9l-.033-.04-.05-.06c-.017-.02-.034-.04-.05-.04-.017-.02-.034-.04-.05-.04-.017-.02-.034-.02-.05-.04-.017-.02-.034-.02-.05-.04-.017 0-.05-.02-.067-.02s-.033-.02-.067-.02H2.85c-.017 0-.033.02-.067.02-.016 0-.05.02-.066.02-.017 0-.034.02-.05.04-.017.02-.034.02-.05.04-.017.02-.034.02-.05.04-.017.02-.034.04-.05.04l-.05.06-.034.04v.02A.165.165 0 0 0 2.4 7c-.017.02-.017.04-.033.06-.017.02-.017.04-.017.08 0 .02-.017.04-.017.08v9.36c0 .44.3.8.667.8h14c.367 0 .667-.36.667-.8L17.6 7.36c0 .02 0 0 0 0zm-2.683.82l-4.984 4.44L4.95 8.18h9.967zM3.6 15.78v-6.8l5.933 5.28c.117.1.25.16.4.16.15 0 .284-.06.4-.16l5.934-5.28v6.8H3.6z" fill="#B6F03E"/></svg>