<svg width="16" height="12" fill="none" xmlns="http://www.w3.org/2000/svg"><path d="M15.6 1.36v-.08-.06c0-.02-.017-.04-.017-.08 0-.02-.016-.06-.016-.08 0-.02-.017-.04-.034-.06-.016-.02-.016-.06-.033-.08V.9l-.033-.04-.05-.06c-.017-.02-.034-.04-.05-.04-.017-.02-.034-.04-.05-.04-.017-.02-.034-.02-.05-.04-.017-.02-.034-.02-.05-.04-.017 0-.05-.02-.067-.02S15.117.6 15.083.6H.85C.833.6.817.62.783.62.767.62.733.64.717.64.7.64.683.66.667.68.65.7.633.7.617.72.6.74.583.74.567.76.55.78.533.8.517.8l-.05.06L.433.9v.02A.165.165 0 0 0 .4 1c-.017.02-.017.04-.033.06-.017.02-.017.04-.017.08 0 .02-.017.04-.017.08v9.36c0 .44.3.8.667.8h14c.367 0 .667-.36.667-.8L15.6 1.36c0 .02 0 0 0 0zm-2.683.82L7.933 6.62 2.95 2.18h9.967zM1.6 9.78v-6.8l5.933 5.28c.117.1.25.16.4.16.15 0 .284-.06.4-.16l5.934-5.28v6.8H1.6z" fill="#B6F03E"/></svg>