<svg width="45" height="60" fill="none" xmlns="http://www.w3.org/2000/svg"><path d="M44.634 12.866l-12.5-12.5A1.25 1.25 0 0 0 31.25 0H5C2.242 0 0 2.242 0 5v50c0 2.758 2.242 5 5 5h35c2.758 0 5-2.242 5-5V13.75c0-.332-.132-.65-.366-.884zM32.5 4.268l8.232 8.232H35a2.503 2.503 0 0 1-2.5-2.5V4.268zM42.5 55c0 1.378-1.122 2.5-2.5 2.5H5A2.503 2.503 0 0 1 2.5 55V5c0-1.378 1.122-2.5 2.5-2.5h25V10c0 2.758 2.242 5 5 5h7.5v40z" fill="#71AB04"/><path d="M28.873 36.696c-1.157-.911-2.257-1.847-2.99-2.58a43.064 43.064 0 0 1-2.537-2.754C24.496 27.81 25 25.977 25 25c0-4.15-1.499-5-3.75-5-1.71 0-3.75.889-3.75 5.12 0 1.865 1.022 4.13 3.047 6.761-.496 1.513-1.078 3.257-1.732 5.224a28.662 28.662 0 0 1-1.018 2.625c-.294.13-.58.264-.856.402-.994.497-1.937.944-2.812 1.358-3.992 1.89-6.629 3.14-6.629 5.608C7.5 48.891 9.447 50 11.25 50c2.324 0 5.834-3.104 8.397-8.334 2.661-1.05 5.97-1.827 8.58-2.314C30.32 40.96 32.632 42.5 33.75 42.5c3.1 0 3.75-1.792 3.75-3.295 0-2.955-3.377-2.955-5-2.955-.504 0-1.857.149-3.627.446zM11.25 47.5c-.714 0-1.197-.337-1.25-.402 0-.886 2.643-2.138 5.199-3.35l.494-.232C13.816 46.238 11.96 47.5 11.25 47.5zM20 25.12c0-2.62.813-2.62 1.25-2.62.884 0 1.25 0 1.25 2.5 0 .527-.351 1.846-.995 3.904C20.524 27.393 20 26.098 20 25.12zm.958 13.435c.078-.218.154-.437.227-.66.464-1.391.882-2.641 1.254-3.767a50.451 50.451 0 0 0 1.677 1.756c.235.234.816.761 1.59 1.422-1.541.336-3.18.752-4.748 1.249zm14.042.65c0 .562 0 .795-1.16.802-.34-.073-1.128-.537-2.1-1.198a8.05 8.05 0 0 1 .76-.059c1.847 0 2.37.18 2.5.455z" fill="#71AB04"/></svg>