<svg width="29" height="29" fill="none" xmlns="http://www.w3.org/2000/svg"><path d="M13.078 23.102h.048l2.368-.153c.342-.012.672-.177.908-.46a1.4 1.4 0 0 0 .33-.896v-.07l-.318-2.817a1.253 1.253 0 0 0-1.261-1.214c-.048 0-.095 0-.13.012l-1.06.212c-.177-.271-.484-1.237-.484-3.57 0-2.334.307-3.3.483-3.572l1.06.212a.442.442 0 0 0 .13.012c.684 0 1.226-.542 1.262-1.214l.318-2.816v-.071c0-.707-.566-1.32-1.226-1.344L13.137 5.2h-.047c-.424 0-.837.248-1.202.613-.648.648-1.131 1.65-1.367 2.192-.46 1.049-1.214 3.241-1.214 6.164 0 2.168.436 4.348 1.214 6.163.365.813 1.332 2.77 2.557 2.77zm-2.45-8.957c0-4.36 1.85-7.413 2.474-7.613l2.298.153-.318 2.746-1.037-.212c-.024 0-.036-.012-.06-.012a1.078 1.078 0 0 0-.86.295c-.235.212-.966.872-.966 4.62 0 .919 0 3.747.966 4.62.248.223.554.318.86.294.024 0 .048 0 .06-.012l1.037-.212.318 2.746-2.298.153c-.625-.153-2.475-3.205-2.475-7.566z" fill="#B6F03E"/></svg>