<svg xmlns="http://www.w3.org/2000/svg" width="7.4" height="17.9"><path d="M3.8 17.9l2.4-.2c.3 0 .7-.2.9-.5.2-.3.3-.6.3-.9v-.1l-.3-2.8c0-.7-.6-1.2-1.3-1.2h-.1l-1.1.2c-.2-.3-.5-1.2-.5-3.6 0-2.3.3-3.3.5-3.6l1.1.2h.1c.7 0 1.2-.5 1.3-1.2l.3-2.8v.1C7.4.8 6.8.2 6.2.2L3.8 0c-.4 0-.9.2-1.2.6-.7.7-1.2 1.7-1.4 2.2C.8 3.9 0 6 0 9c0 2.2.4 4.3 1.2 6.2.4.7 1.3 2.7 2.6 2.7zm-2.5-9c0-4.4 1.9-7.4 2.5-7.6l2.3.2-.3 2.7L4.7 4h-.1c-.2 0-.6.1-.8.3-.2.2-1 .9-1 4.6 0 .9 0 3.7 1 4.6.2.2.6.3.9.3h.1l1-.2.3 2.7-2.3.2c-.6-.1-2.5-3.2-2.5-7.6z" fill="#b6f03e"/></svg>