<svg width="12" height="12" fill="none" xmlns="http://www.w3.org/2000/svg"><path d="M7.183 1.63c-1.71 0-3.1 1.41-3.1 3.13 0 .73.25 1.39.66 1.93l-2.94 2.97c-.17.18-.17.46 0 .63.09.09.2.13.31.13.12 0 .23-.04.32-.13l2.94-2.98c.51.37 1.13.58 1.8.58 1.71 0 3.1-1.41 3.1-3.13a3.1 3.1 0 0 0-3.09-3.13zm0 5.47c-1.27 0-2.3-1.05-2.3-2.34 0-1.29 1.03-2.34 2.3-2.34 1.27 0 2.3 1.05 2.3 2.34 0 1.29-1.03 2.34-2.3 2.34zm1.55-2.3c-.02.17-.17.3-.34.3h-.05a.355.355 0 0 1-.3-.39c.07-.52-.51-.79-.54-.8a.352.352 0 0 1-.17-.46c.08-.17.28-.25.46-.18.04.01 1.08.49.94 1.53zm-.73.76c.07.07.12.18.12.28 0 .11-.04.21-.12.28a.42.42 0 0 1-.28.12c-.1 0-.21-.04-.28-.12a.42.42 0 0 1-.12-.28c0-.1.04-.21.12-.28a.42.42 0 0 1 .28-.12c.1 0 .2.04.28.12z" fill="#222"/></svg>