<svg width="26" height="26" fill="none" xmlns="http://www.w3.org/2000/svg"><path d="M18.992 26a6.933 6.933 0 0 1-3.916-1.196c-3.752.656-7.69-.47-10.55-3.33-2.859-2.858-3.986-6.797-3.33-10.55A6.933 6.933 0 0 1 0 7.008 7.016 7.016 0 0 1 7.008 0c1.414 0 2.758.412 3.916 1.196 8.178-1.43 15.315 5.673 13.88 13.88A6.933 6.933 0 0 1 26 18.992 7.016 7.016 0 0 1 18.992 26zm-3.053-3.078a4.927 4.927 0 0 0 3.053 1.047 4.982 4.982 0 0 0 4.977-4.977 4.927 4.927 0 0 0-1.047-3.053 1.015 1.015 0 0 1-.192-.838C24.253 8.014 17.938 1.758 10.898 3.27c-.293.063-.6-.007-.837-.192a4.926 4.926 0 0 0-3.053-1.047A4.982 4.982 0 0 0 2.03 7.008c0 1.118.362 2.173 1.047 3.053.185.238.255.544.192.838C1.75 17.97 8.046 24.245 15.1 22.73c.293-.063.6.006.838.192zm2.072-6.926c0-2.742-3.468-3.58-4.244-3.819-1.607-.493-3.746-1.043-3.746-2.173 0-1.074 1.364-1.98 2.979-1.98 1.285 0 2.456.581 2.849 1.414a1.016 1.016 0 0 0 1.837-.866c-.8-1.695-2.787-2.58-4.686-2.58-2.955 0-5.01 1.922-5.01 4.012 0 2.742 3.467 3.58 4.243 3.819 1.607.493 3.746 1.043 3.746 2.173 0 1.074-1.364 1.98-2.979 1.98-1.285 0-2.456-.581-2.849-1.414a1.016 1.016 0 0 0-1.837.866c.799 1.695 2.787 2.58 4.686 2.58 2.955 0 5.01-1.922 5.01-4.012z" fill="#94D212"/></svg>