<svg width="24" height="24" fill="none" xmlns="http://www.w3.org/2000/svg"><path fill-rule="evenodd" clip-rule="evenodd" d="M11.838 0C5.378 0 .14 5.373.14 12s5.237 12 11.697 12c6.46 0 11.696-5.373 11.696-12S18.298 0 11.838 0zm.952 15.788c-.115.125-.34.15-.34.15h-.746s-1.645.1-3.095-1.42c-1.58-1.657-2.976-4.945-2.976-4.945s-.08-.216.007-.32c.098-.117.366-.124.366-.124l1.783-.012s.167.027.288.117c.099.073.155.21.155.21s.288.734.669 1.398c.745 1.296 1.092 1.58 1.344 1.44.369-.202.258-1.832.258-1.832s.007-.59-.185-.854c-.149-.204-.43-.264-.554-.28-.1-.014.065-.249.278-.354.321-.158.887-.167 1.557-.16.521.005.672.038.876.087.473.115.458.484.426 1.279-.01.238-.02.514-.02.832 0 .072-.003.148-.005.227-.011.407-.024.874.243 1.047.137.089.47.013 1.306-1.415.396-.677.692-1.473.692-1.473s.066-.142.166-.203c.104-.062.243-.043.243-.043L17.4 9.13s.564-.069.655.188c.096.269-.21.897-.977 1.925-.728.978-1.082 1.337-1.048 1.655.024.232.254.442.695.853.921.862 1.168 1.315 1.227 1.424a.587.587 0 0 0 .012.02c.413.69-.459.744-.459.744l-1.666.023s-.358.072-.829-.254c-.247-.17-.488-.449-.717-.714-.351-.405-.675-.78-.952-.69-.464.148-.45 1.155-.45 1.155s.004.216-.102.33z" fill="#94D212"/></svg>