<svg width="26" height="26" fill="none" xmlns="http://www.w3.org/2000/svg"><path d="M13.007.733C6.233.733.74 6.227.74 13s5.493 12.267 12.267 12.267c6.773 0 12.266-5.494 12.266-12.267S19.78.733 13.007.733zm.986 22.347c-.053 0-.186 0-.186.027V17.32c1.333-.027 2.64-.053 3.786-.133-1.013 3.12-2.88 5.2-3.6 5.893zm-1.973 0c-.72-.72-2.587-2.8-3.6-5.893 1.12.08 2.453.133 3.787.133v5.787s-.107-.027-.187-.027zM2.873 13c0-.667.08-1.333.187-1.973.587-.107 1.707-.267 3.28-.427a14.166 14.166 0 0 0-.213 2.427c0 .853.08 1.653.186 2.4-1.546-.16-2.693-.32-3.28-.427-.08-.667-.16-1.333-.16-2zm4.88 0c0-.907.107-1.76.267-2.56 1.227-.08 2.587-.16 4.187-.16v5.44c-1.6-.027-2.96-.08-4.214-.187A14.863 14.863 0 0 1 7.753 13zm6.214-10.08c.72.72 2.56 2.853 3.6 5.893a53.842 53.842 0 0 0-3.76-.133V2.893s.106.027.16.027zm-1.76-.027V8.68c-1.334.027-2.64.053-3.76.133 1.013-3.04 2.88-5.173 3.573-5.893.08 0 .187-.027.187-.027zm1.6 12.827v-5.44c1.6.027 2.96.08 4.186.16a13.043 13.043 0 0 1 .027 5.12c-1.227.08-2.613.133-4.213.16zm5.84-5.12c1.573.16 2.693.32 3.28.427A9.71 9.71 0 0 1 23.113 13c0 .667-.08 1.333-.186 1.973-.587.107-1.707.267-3.28.427.133-.773.186-1.573.186-2.427a11.57 11.57 0 0 0-.186-2.373zm2.8-1.28a73.807 73.807 0 0 0-3.174-.373c-.64-2.294-1.76-4.134-2.693-5.44a10.163 10.163 0 0 1 5.867 5.813zM9.433 3.507c-.96 1.28-2.053 3.12-2.693 5.413-1.333.107-2.4.267-3.173.373a10.27 10.27 0 0 1 5.866-5.786zM3.567 16.68c.746.107 1.813.24 3.146.373a16.508 16.508 0 0 0 2.667 5.414 10.257 10.257 0 0 1-5.813-5.787zm13.066 5.787A16.345 16.345 0 0 0 19.3 17.08c1.333-.107 2.4-.267 3.147-.373a10.291 10.291 0 0 1-5.814 5.76z" fill="#94D212"/></svg>